<?xml version="1.0" encoding="iso-8859-1"?>
<!-- Generator: Adobe Illustrator 19.0.0, SVG Export Plug-In . SVG Version: 6.00 Build 0)  -->
<svg xmlns="http://www.w3.org/2000/svg" xmlns:xlink="http://www.w3.org/1999/xlink" version="1.1" id="Capa_1" x="0px" y="0px" viewBox="0 0 512.001 512.001" style="enable-background:new 0 0 512.001 512.001;" xml:space="preserve" width="512px" height="512px">
<g>
	<g>
		<path d="M406.769,62.448C366.507,22.187,312.978,0.01,256.038,0c-0.013,0-0.025,0-0.038,0c0.001,0.007-0.024,0-0.038,0    C199.03,0.011,145.498,22.188,105.236,62.451c-40.272,40.272-62.45,93.816-62.45,150.765    c-0.002,101.555,85.044,181.289,160.077,251.638c16.375,15.352,31.841,29.853,46.033,44.183c1.879,1.895,4.437,2.963,7.105,2.963    c2.669,0,5.227-1.067,7.105-2.963c14.192-14.331,29.659-28.832,46.033-44.184c75.033-70.349,160.078-150.084,160.076-251.637    C469.217,156.264,447.039,102.721,406.769,62.448z M295.462,450.263c-13.842,12.978-27.04,25.352-39.46,37.61    c-12.42-12.258-25.617-24.632-39.459-37.608C144.471,382.692,62.784,306.106,62.786,213.216    C62.785,161.61,82.884,113.09,119.379,76.594C155.873,40.099,204.393,20,255.998,20c0.012,0,0.023,0,0.035,0    c51.599,0.006,100.106,20.104,136.593,56.59c36.494,36.494,56.592,85.016,56.591,136.626    C449.219,306.105,367.533,382.692,295.462,450.263z" fill="#ff8c89"/>
	</g>
</g>
<g>
	<g>
		<path d="M255.378,55.784c-30.71,0-60.524,8.89-86.221,25.708c-4.621,3.024-5.915,9.223-2.891,13.844    c1.919,2.932,5.115,4.524,8.377,4.524c1.878,0,3.777-0.528,5.467-1.634c22.432-14.682,48.459-22.442,75.268-22.442    c5.523,0,10-4.478,10-10C265.378,60.261,260.901,55.784,255.378,55.784z" fill="#ff8c89"/>
	</g>
</g>
<g>
	<g>
		<path d="M158.395,101.695c-3.906-3.904-10.236-3.904-14.143,0l-0.153,0.152c-3.933,3.877-3.979,10.209-0.102,14.143    c1.957,1.985,4.539,2.979,7.122,2.979c2.535,0,5.072-0.958,7.02-2.878l0.256-0.253C162.3,111.933,162.3,105.601,158.395,101.695z" fill="#ff8c89"/>
	</g>
</g>
<g>
	<g>
		<path d="M344.489,331.118c-3.025-4.619-9.219-5.915-13.844-2.89c-22.432,14.682-48.459,22.442-75.268,22.442    c-5.522,0-10,4.478-10,10s4.478,10,10,10c30.71,0,60.524-8.89,86.221-25.708C346.219,341.937,347.513,335.739,344.489,331.118z" fill="#ff8c89"/>
	</g>
</g>
<g>
	<g>
		<path d="M366.655,310.362c-3.932-3.875-10.264-3.83-14.142,0.102l-0.103,0.103c-3.933,3.877-3.978,10.209-0.102,14.142    c1.957,1.985,4.539,2.979,7.122,2.979c2.535,0,5.072-0.958,7.021-2.878l0.306-0.306    C370.634,320.57,370.588,314.238,366.655,310.362z" fill="#ff8c89"/>
	</g>
</g>
<g>
	<g>
		<path d="M354.891,185.055c-1.059-3.257-3.709-5.746-7.026-6.597l-54.116-13.881l-29.924-47.178    c-1.834-2.892-5.021-4.644-8.444-4.644c-3.425,0-6.61,1.752-8.444,4.644l-29.924,47.179l-54.115,13.88    c-3.317,0.851-5.968,3.34-7.026,6.597c-1.058,3.256-0.376,6.828,1.807,9.466L193.3,237.56l-3.522,55.755    c-0.216,3.418,1.332,6.708,4.103,8.721c2.77,2.014,6.377,2.469,9.561,1.207l51.941-20.579l51.934,20.579    c1.19,0.472,2.439,0.703,3.683,0.703c2.081,0,4.145-0.649,5.879-1.91c2.771-2.013,4.318-5.303,4.103-8.721l-3.522-55.756    l35.622-43.038C355.267,191.883,355.948,188.312,354.891,185.055z M299.526,227.858c-1.623,1.961-2.438,4.466-2.277,7.007    l2.778,43.976l-40.965-16.23c-2.368-0.937-5.002-0.937-7.368,0l-40.967,16.23l2.778-43.975c0.16-2.541-0.654-5.046-2.276-7.007    l-28.096-33.945l42.682-10.947c2.466-0.633,4.597-2.181,5.96-4.33l23.602-37.211l23.602,37.21c1.363,2.15,3.494,3.697,5.96,4.33    l42.683,10.948L299.526,227.858z" fill="#ff8c89"/>
	</g>
</g>
<g>
</g>
<g>
</g>
<g>
</g>
<g>
</g>
<g>
</g>
<g>
</g>
<g>
</g>
<g>
</g>
<g>
</g>
<g>
</g>
<g>
</g>
<g>
</g>
<g>
</g>
<g>
</g>
<g>
</g>
</svg>
