<?xml version="1.0" encoding="iso-8859-1"?>
<!-- Generator: Adobe Illustrator 19.0.0, SVG Export Plug-In . SVG Version: 6.00 Build 0)  -->
<svg xmlns="http://www.w3.org/2000/svg" xmlns:xlink="http://www.w3.org/1999/xlink" version="1.1" id="Capa_1" x="0px" y="0px" viewBox="0 0 512 512" style="enable-background:new 0 0 512 512;" xml:space="preserve" width="512px" height="512px">
<g>
	<g>
		<path d="M313.872,65.395l-0.269-0.001c-5.826,0-10.522,4.72-10.528,10.545c-0.007,5.821,4.727,10.547,10.546,10.568    c0.037,0,0.073,0,0.11,0c5.762,0,10.473-4.632,10.552-10.412C324.364,70.265,319.702,65.474,313.872,65.395z" fill="#ff8c89"/>
	</g>
</g>
<g>
	<g>
		<path d="M352.843,76.951c-4.908-3.147-11.437-1.72-14.585,3.188c-3.148,4.908-1.721,11.437,3.187,14.585    c16.059,10.298,25.629,28.187,25.599,47.854c-0.008,5.83,4.71,10.564,10.541,10.573c0.005,0,0.011,0,0.017,0    c5.822,0,10.547-4.716,10.557-10.541C388.2,115.703,374.998,91.158,352.843,76.951z" fill="#ff8c89"/>
	</g>
</g>
<g>
	<g>
		<path d="M420.504,123.046c-5.427-52.89-48.817-94.233-101.372-94.233c-24.355,0-48.012,9.16-66.39,25.435    c-18.378-16.275-42.035-25.435-66.39-25.435c-52.554,0-95.945,41.343-101.372,94.233c-42.08,7.441-73.831,45.487-73.831,90.547    c0,34.416,23.862,74.441,70.923,118.961c20.459,19.356,40.717,35.175,53.951,44.937l-14.746,26.46    c-1.818,3.262-1.777,7.241,0.108,10.465c1.884,3.224,5.331,5.213,9.065,5.231l15.921,0.075v81.721    c0,5.831,4.726,10.557,10.557,10.557s10.557-4.726,10.557-10.557V419.82l15.602,0.074c0.017,0,0.033,0,0.05,0    c2.79,0,5.468-1.108,7.447-3.077c1.991-1.982,3.11-4.678,3.11-7.486c0-1.765-0.442-3.502-1.288-5.052l-14.581-26.753    c10.765-7.937,26.181-19.887,42.568-34.487l-9.401,16.869c-2.507,4.5-1.401,10.154,2.619,13.376    c8.274,6.632,19.247,7.921,28.576,3.852v124.307c0,5.831,4.726,10.557,10.557,10.557c5.83,0,10.557-4.726,10.557-10.557V377.352    c3.526,1.529,7.285,2.305,11.048,2.305c6.084,0,12.169-2,17.264-6.005c2.339-1.839,3.795-4.587,4.007-7.555    c0.144-2.015-0.294-4.029-1.26-5.804l-9.536-17.496c16.36,14.595,31.773,26.56,42.585,34.54l-14.83,26.611    c-1.818,3.261-1.777,7.241,0.108,10.465c1.884,3.224,5.331,5.213,9.065,5.231l16.232,0.076v81.723    c0,5.831,4.726,10.557,10.557,10.557c5.831,0,10.557-4.726,10.557-10.557v-81.622l15.29,0.072c0.017,0,0.033,0,0.05,0    c2.79,0,5.468-1.108,7.447-3.077c1.991-1.982,3.11-4.678,3.11-7.486c0-1.765-0.442-3.502-1.288-5.052l-14.498-26.6    c13.229-9.745,33.615-25.642,54.208-45.125c47.061-44.521,70.923-84.544,70.923-118.961    C494.335,168.532,462.584,130.487,420.504,123.046z M148.419,398.617l5.151-9.243c1.096,0.371,2.233,0.575,3.375,0.575    c1.117,0,2.23-0.194,3.303-0.548l5.066,9.295L148.419,398.617z M156.944,366.546c-11.019-7.805-35.95-26.203-60.574-49.528    c-41.94-39.727-64.109-75.49-64.109-103.425c0-33.441,22.461-61.85,52.788-69.01c7.9,66.725,89.179,137.413,133.541,171.407    C193.589,339.814,168.115,358.631,156.944,366.546z M252.588,350.826c-5.099,0-10.2,1.406-14.717,4.218l10.032-18.003    c1.518,0.785,3.174,1.199,4.838,1.199c1.681,0,3.352-0.423,4.883-1.225l9.902,18.168    C262.958,352.279,257.774,350.826,252.588,350.826z M252.743,314.852c-12.329-8.687-42.271-30.618-71.846-58.627    c-49.314-46.702-75.379-88.879-75.379-121.973c-0.001-46.498,36.261-84.326,80.833-84.326c22.36,0,43.167,9.317,58.589,26.237    c2,2.195,4.833,3.446,7.802,3.446s5.802-1.251,7.802-3.446c15.42-16.919,36.227-26.237,58.589-26.237    c44.573,0,80.835,37.828,80.835,84.326c0,33.094-26.066,75.271-75.379,121.973C295.013,284.234,265.072,306.164,252.743,314.852z     M339.719,398.617l5.202-9.335c1.169,0.428,2.388,0.667,3.616,0.667c1.032,0,2.064-0.154,3.061-0.456l5.016,9.203L339.719,398.617    z M409.113,317.018c-24.625,23.325-49.557,41.725-60.575,49.529c-11.164-7.905-36.613-26.699-61.645-50.557    c44.362-33.993,125.643-104.682,133.542-171.407c30.326,7.162,52.788,35.569,52.788,69.01    C473.222,241.528,451.054,277.291,409.113,317.018z" fill="#ff8c89"/>
	</g>
</g>
<g>
	<g>
		<path d="M442.461,235.268c-4.819-3.013-11.134-1.658-14.311,2.994c-3.24,4.722-2.122,11.186,2.548,14.541    c1.864,1.34,4.017,1.984,6.15,1.984c3.275,0,6.502-1.518,8.566-4.374c0.138-0.192,0.278-0.398,0.403-0.599    C448.909,244.871,447.406,238.359,442.461,235.268z" fill="#ff8c89"/>
	</g>
</g>
<g>
	<g>
		<path d="M422.271,264.271c-4.382-3.845-11.052-3.409-14.898,0.973c-13.984,15.94-31.294,32.456-51.448,49.091    c-4.496,3.712-5.133,10.366-1.422,14.862c2.088,2.529,5.105,3.837,8.148,3.837c2.367,0,4.747-0.792,6.714-2.415    c21.024-17.353,39.151-34.663,53.879-51.449C427.089,274.787,426.653,268.117,422.271,264.271z" fill="#ff8c89"/>
	</g>
</g>
<g>
	<g>
		<path d="M149.557,314.335c-20.155-16.635-37.465-33.152-51.448-49.091c-3.846-4.382-10.513-4.817-14.898-0.973    c-4.382,3.846-4.818,10.516-0.973,14.898c14.728,16.785,32.856,34.096,53.879,51.449c1.968,1.625,4.348,2.416,6.714,2.416    c3.041,0,6.06-1.308,8.148-3.837C154.691,324.701,154.054,318.047,149.557,314.335z" fill="#ff8c89"/>
	</g>
</g>
<g>
	<g>
		<path d="M487.626,6.863c-4.122-4.122-10.807-4.122-14.93,0l-24.731,24.731c-4.122,4.122-4.122,10.807,0,14.93    c2.062,2.062,4.764,3.092,7.466,3.092c2.701,0,5.404-1.03,7.465-3.092l24.731-24.731C491.749,17.671,491.749,10.986,487.626,6.863    z" fill="#ff8c89"/>
	</g>
</g>
<g>
	<g>
		<path d="M57.518,31.594L32.786,6.864c-4.122-4.122-10.807-4.122-14.93,0c-4.122,4.122-4.122,10.807,0,14.93l24.731,24.73    c2.062,2.062,4.764,3.092,7.466,3.092s5.404-1.03,7.465-3.092C61.64,42.402,61.64,35.718,57.518,31.594z" fill="#ff8c89"/>
	</g>
</g>
<g>
	<g>
		<path d="M50.053,433.88h-0.131c-5.83,0-10.557,4.726-10.557,10.557c0,5.83,4.726,10.557,10.557,10.557h0.131    c5.83,0,10.557-4.726,10.557-10.557C60.61,438.607,55.883,433.88,50.053,433.88z" fill="#ff8c89"/>
	</g>
</g>
<g>
	<g>
		<path d="M455.43,85.482h-0.131c-5.831,0-10.557,4.726-10.557,10.557c0,5.831,4.726,10.557,10.557,10.557h0.131    c5.831,0,10.557-4.726,10.557-10.557C465.987,90.208,461.261,85.482,455.43,85.482z" fill="#ff8c89"/>
	</g>
</g>
<g>
	<g>
		<path d="M455.43,437.047h-0.131c-5.831,0-10.557,4.726-10.557,10.557c0,5.831,4.726,10.557,10.557,10.557h0.131    c5.831,0,10.557-4.726,10.557-10.557C465.987,441.774,461.261,437.047,455.43,437.047z" fill="#ff8c89"/>
	</g>
</g>
<g>
	<g>
		<path d="M397.356,0h-0.131c-5.831,0-10.557,4.726-10.557,10.557s4.726,10.557,10.557,10.557h0.131    c5.831,0,10.557-4.726,10.557-10.557S403.186,0,397.356,0z" fill="#ff8c89"/>
	</g>
</g>
<g>
	<g>
		<path d="M50.184,85.482h-0.131c-5.83,0-10.557,4.726-10.557,10.557c0,5.831,4.726,10.557,10.557,10.557h0.131    c5.83,0,10.557-4.726,10.557-10.557C60.741,90.208,56.014,85.482,50.184,85.482z" fill="#ff8c89"/>
	</g>
</g>
<g>
	<g>
		<path d="M108.257,0h-0.131C102.296,0,97.57,4.726,97.57,10.557s4.726,10.557,10.557,10.557h0.131    c5.831,0,10.557-4.726,10.557-10.557S114.088,0,108.257,0z" fill="#ff8c89"/>
	</g>
</g>
<g>
	<g>
		<path d="M497.762,366.624c12.794-12.794,12.794-33.612,0-46.405c-4.122-4.122-10.807-4.122-14.93,0    c-4.122,4.122-4.122,10.807,0,14.93c4.562,4.562,4.562,11.984,0,16.546c-12.794,12.794-12.794,33.611,0,46.405    c2.062,2.062,4.763,3.092,7.465,3.092c2.701,0,5.404-1.03,7.465-3.092c4.122-4.122,4.122-10.807,0-14.93    C493.2,378.608,493.2,371.185,497.762,366.624z" fill="#ff8c89"/>
	</g>
</g>
<g>
	<g>
		<path d="M29.168,366.624c12.796-12.794,12.796-33.612,0.001-46.405c-4.122-4.122-10.807-4.122-14.93,0    c-4.122,4.122-4.122,10.807,0,14.93c4.562,4.562,4.562,11.984,0,16.546c-12.794,12.794-12.794,33.611,0,46.405    c2.062,2.062,4.763,3.092,7.465,3.092c2.701,0,5.404-1.03,7.465-3.092c4.122-4.122,4.122-10.807,0-14.93    C24.606,378.608,24.606,371.185,29.168,366.624z" fill="#ff8c89"/>
	</g>
</g>
<g>
</g>
<g>
</g>
<g>
</g>
<g>
</g>
<g>
</g>
<g>
</g>
<g>
</g>
<g>
</g>
<g>
</g>
<g>
</g>
<g>
</g>
<g>
</g>
<g>
</g>
<g>
</g>
<g>
</g>
</svg>
