<?xml version="1.0" encoding="iso-8859-1"?>
<!-- Generator: Adobe Illustrator 19.0.0, SVG Export Plug-In . SVG Version: 6.00 Build 0)  -->
<svg xmlns="http://www.w3.org/2000/svg" xmlns:xlink="http://www.w3.org/1999/xlink" version="1.1" id="Capa_1" x="0px" y="0px" viewBox="0 0 512 512" style="enable-background:new 0 0 512 512;" xml:space="preserve" width="512px" height="512px">
<g>
	<g>
		<path d="M482,408h-24v-98.5c0-24.686-15.113-45.904-36.571-54.899V164c0-27.57-22.43-50-50-50h-19.905V93.694    c9.87-6.25,28.113-20.064,28.113-36.787C379.637,42.07,367.846,30,353.353,30c-4.137,0-8.19,1.012-11.829,2.888    C337.885,31.012,333.832,30,329.695,30c-8.074,0-15.306,3.749-20.131,9.633c0.12-1.1,0.19-2.206,0.19-3.32    C309.753,16.29,293.898,0,274.41,0c-6.53,0-12.908,1.883-18.41,5.326C250.498,1.883,244.12,0,237.59,0    c-19.488,0-35.343,16.29-35.343,36.313c0,1.114,0.07,2.22,0.19,3.32C197.611,33.749,190.379,30,182.305,30    c-4.137,0-8.19,1.012-11.829,2.888C166.837,31.012,162.784,30,158.647,30c-14.493,0-26.284,12.07-26.284,26.907    c0,16.723,18.242,30.538,28.113,36.787V114h-19.905c-27.57,0-50,22.43-50,50v90.601C69.113,263.596,54,284.814,54,309.5V408H30    c-16.542,0-30,13.458-30,30s13.458,30,30,30h189v34c0,5.523,4.477,10,10,10h54c5.523,0,10-4.477,10-10v-34h189    c16.542,0,30-13.458,30-30S498.542,408,482,408z M371.429,134c9.157,0,17.364,4.129,22.871,10.617    c-0.005,0.126-0.019,0.25-0.019,0.377c0,3.429-0.63,6.767-1.872,9.919c-4.106,10.419-13.997,17.151-25.198,17.151    c-14.927,0-27.07-12.144-27.07-27.07V134H371.429z M329.695,50c2.256,0,3.749,1.269,4.438,2.025    c1.895,2.079,4.578,3.263,7.391,3.263s5.496-1.185,7.391-3.263c0.689-0.756,2.183-2.025,4.438-2.025    c3.465,0,6.284,3.098,6.284,6.907c0,4.895-8.798,13.357-18.108,19.431c-8.595-5.625-18.117-14.136-18.117-19.431    C323.411,53.098,326.23,50,329.695,50z M303.425,56.351c-0.004,0.186-0.014,0.37-0.014,0.556    c0,16.723,18.242,30.538,28.113,36.787V114H266V90.447C275.296,84.758,293.715,72.146,303.425,56.351z M320.141,134v10.995    c0,14.927-12.144,27.07-27.07,27.07c-14.926,0-27.071-12.144-27.071-27.07V134H320.141z M237.59,20    c4.187,0,8.1,1.764,11.019,4.967c1.895,2.079,4.578,3.264,7.391,3.264s5.496-1.185,7.391-3.264    c2.92-3.203,6.833-4.967,11.019-4.967c8.46,0,15.343,7.318,15.343,16.313c0,12.365-20.36,28.485-33.753,36.802    c-13.398-8.321-33.754-24.439-33.754-36.802C222.247,27.318,229.129,20,237.59,20z M208.589,56.907    c0-0.187-0.01-0.371-0.014-0.556c9.709,15.795,28.129,28.408,37.425,34.097V114h-65.524V93.694    C190.346,87.444,208.589,73.63,208.589,56.907z M191.86,134H246v10.995c0,14.927-12.144,27.07-27.07,27.07    s-27.07-12.144-27.07-27.07V134z M152.363,56.907c0-3.809,2.819-6.907,6.284-6.907c2.256,0,3.749,1.269,4.438,2.025    c1.895,2.079,4.578,3.263,7.391,3.263s5.496-1.185,7.391-3.263c0.689-0.756,2.183-2.025,4.438-2.025    c3.465,0,6.284,3.098,6.284,6.907c0,4.895-8.798,13.357-18.108,19.431C161.885,70.712,152.363,62.201,152.363,56.907z     M140.571,134h31.288v10.995c0,14.927-12.144,27.07-27.07,27.07c-11.484,0-21.752-7.275-25.553-18.103    c-1.007-2.87-1.518-5.887-1.518-8.967c0-0.127-0.014-0.251-0.019-0.377C123.207,138.129,131.414,134,140.571,134z     M110.571,177.308c8.716,9.21,21.002,14.757,34.218,14.757c15.041,0,28.447-7.1,37.07-18.116    c8.623,11.015,22.029,18.116,37.07,18.116s28.447-7.1,37.07-18.116c8.623,11.015,22.029,18.116,37.07,18.116    s28.447-7.1,37.07-18.116c8.623,11.015,22.029,18.116,37.07,18.116c13.293,0,25.522-5.458,34.218-14.683V218h-35.254    c-5.523,0-10,4.477-10,10s4.477,10,10,10h35.254v12H398.5h-285h-2.929V177.308z M74,309.5c0-21.78,17.72-39.5,39.5-39.5h285    c21.78,0,39.5,17.72,39.5,39.5v0.1c0,15.66-12.74,28.4-28.4,28.4c-15.66,0-28.4-12.74-28.4-28.4V301c0-5.523-4.477-10-10-10    s-10,4.477-10,10v8.6c0,15.66-12.74,28.4-28.4,28.4c-15.66,0-28.4-12.74-28.4-28.4V301c0-5.523-4.477-10-10-10s-10,4.477-10,10    v8.6c0,15.66-12.74,28.4-28.4,28.4c-15.66,0-28.4-12.74-28.4-28.4V301c0-5.523-4.477-10-10-10s-10,4.477-10,10v8.6    c0,15.66-12.74,28.4-28.4,28.4c-15.66,0-28.4-12.74-28.4-28.4V301c0-5.523-4.477-10-10-10s-10,4.477-10,10v8.6    c0,15.66-12.74,28.4-28.4,28.4C86.74,338,74,325.26,74,309.6V309.5z M273,492h-34v-24h34V492z M482,448H283h-54H30    c-5.514,0-10-4.486-10-10c0-5.514,4.486-10,10-10h180.333c5.523,0,10-4.477,10-10s-4.477-10-10-10H74v-59.243    c7.983,5.806,17.795,9.243,28.4,9.243c15.63,0,29.545-7.454,38.4-18.987C149.655,350.546,163.57,358,179.2,358    s29.545-7.454,38.4-18.986C226.455,350.546,240.37,358,256,358s29.545-7.454,38.4-18.986C303.254,350.546,317.17,358,332.8,358    c15.63,0,29.546-7.454,38.4-18.987C380.055,350.546,393.97,358,409.6,358c10.605,0,20.417-3.437,28.4-9.243V408H301    c-5.523,0-10,4.477-10,10s4.477,10,10,10h181c5.514,0,10,4.486,10,10C492,443.514,487.514,448,482,448z" fill="#ff8c89"/>
	</g>
</g>
<g>
	<g>
		<path d="M266.07,410.93c-1.86-1.86-4.44-2.93-7.07-2.93s-5.21,1.07-7.07,2.93S249,415.37,249,418s1.07,5.21,2.93,7.07    c1.86,1.86,4.44,2.93,7.07,2.93s5.21-1.07,7.07-2.93c1.86-1.86,2.93-4.44,2.93-7.07S267.93,412.79,266.07,410.93z" fill="#ff8c89"/>
	</g>
</g>
<g>
	<g>
		<path d="M330.265,218h-0.124c-5.523,0-10,4.477-10,10s4.477,10,10,10h0.124c5.523,0,10-4.477,10-10S335.788,218,330.265,218z" fill="#ff8c89"/>
	</g>
</g>
<g>
</g>
<g>
</g>
<g>
</g>
<g>
</g>
<g>
</g>
<g>
</g>
<g>
</g>
<g>
</g>
<g>
</g>
<g>
</g>
<g>
</g>
<g>
</g>
<g>
</g>
<g>
</g>
<g>
</g>
</svg>
