<?xml version="1.0" encoding="iso-8859-1"?>
<!-- Generator: Adobe Illustrator 19.0.0, SVG Export Plug-In . SVG Version: 6.00 Build 0)  -->
<svg xmlns="http://www.w3.org/2000/svg" xmlns:xlink="http://www.w3.org/1999/xlink" version="1.1" id="Capa_1" x="0px" y="0px" viewBox="0 0 512.002 512.002" style="enable-background:new 0 0 512.002 512.002;" xml:space="preserve" width="512px" height="512px">
<g>
	<g>
		<path d="M117.211,359.34c-5.522,0-10,4.478-10,10v0.113c0,5.522,4.478,10,10,10c5.522,0,10-4.478,10-10v-0.113    C127.211,363.817,122.733,359.34,117.211,359.34z" fill="#ff8c89"/>
	</g>
</g>
<g>
	<g>
		<path d="M182.515,255.059c-45.854,0-83.159,37.305-83.159,83.159c0,5.522,4.478,10,10,10h146.318c5.522,0,10-4.478,10-10    C265.674,292.364,228.369,255.059,182.515,255.059z M172.516,328.218h-52.368c4.286-26.831,25.538-48.064,52.368-52.352V328.218z     M192.516,328.218v-52.352c26.83,4.288,48.081,25.521,52.368,52.352H192.516z" fill="#ff8c89"/>
	</g>
</g>
<g>
	<g>
		<path d="M182.516,359.282c-5.522,0-10,4.478-10,10v0.114c0,5.522,4.478,10,10,10c5.522,0,10-4.478,10-10v-0.114    C192.516,363.76,188.038,359.282,182.516,359.282z" fill="#ff8c89"/>
	</g>
</g>
<g>
	<g>
		<path d="M502,433.001h-54c-5.522,0-10,4.478-10,10v6.494c-14.168,1.961-28.188,1.915-41.523-0.086    c17.979-6.173,34.853-15.854,49.738-28.639l0.359,0.622c1.326,2.297,3.51,3.973,6.072,4.659c0.852,0.229,1.721,0.341,2.588,0.341    c1.74,0,3.467-0.454,5-1.34l46.766-27c4.783-2.762,6.422-8.877,3.66-13.66l-14-24.249c-1.326-2.297-3.51-3.973-6.072-4.659    c-2.56-0.687-5.29-0.328-7.588,0.999l-46.766,27c-4.783,2.762-6.422,8.877-3.66,13.66l3.441,5.96    c-20.223,18.349-44.929,29.883-70.984,33.207v-30.197c0-37.559-26.134-69.426-62.035-77.305    c-2.856-28.477-15.577-54.842-36.328-74.961c-22.792-22.099-52.832-34.269-84.585-34.269c-31.774,0-61.828,12.184-84.625,34.308    c-20.782,20.168-33.498,46.597-36.311,75.136C25.762,337.257,0,369.041,0,406.114v44.963c0,2.654,1.056,5.2,2.935,7.076    c1.875,1.872,4.416,2.924,7.065,2.924c0.005,0,0.01,0,0.015,0l43.775-0.063c4.406,16.109,19.164,27.987,36.652,27.987    c17.492,0,32.253-11.884,36.655-28h122.97c4.402,16.116,19.163,28,36.655,28c17.488,0,32.246-11.879,36.652-27.988l31.637,0.064    c0.007,0,0.014,0,0.021,0c1.642,0,3.242-0.406,4.669-1.159c17.664,7.296,37.309,11.038,57.643,11.038    c6.825,0,13.728-0.425,20.657-1.271v1.316c0,5.522,4.478,10,10,10h54c5.522,0,10-4.478,10-10v-28    C512,437.478,507.522,433.001,502,433.001z M484.34,378.804l4,6.929l-29.445,17l-4-6.929L484.34,378.804z M90.441,469.001    c-9.925,0-18-8.075-18-18s8.075-18,18-18c9.925,0,18,8.075,18,18S100.366,469.001,90.441,469.001z M286.722,469.001    c-9.925,0-18-8.075-18-18s8.075-18,18-18s18,8.075,18,18S296.646,469.001,286.722,469.001z M345.033,441.056l-21.651-0.044    C318.984,424.89,304.22,413,286.724,413c-17.492,0-32.253,11.884-36.655,28h-57.551v-43.632c0-5.522-4.478-10-10-10    c-5.522,0-10,4.478-10,10V441h-45.419c-4.402-16.116-19.163-28-36.655-28c-17.497,0-32.261,11.89-36.659,28.012L20,441.062    v-34.948c0-29.815,22.286-55.052,51.839-58.703c4.89-0.604,8.61-4.681,8.769-9.605c1.762-55.079,46.336-98.226,101.476-98.226    c55.086,0,99.658,43.102,101.473,98.125c0.163,4.969,3.952,9.063,8.894,9.61c29.977,3.318,52.582,28.597,52.582,58.799V441.056z     M492,461.001h-34v-2.849c0-0.019,0-0.038,0-0.057v-5.094h34V461.001z" fill="#ff8c89"/>
	</g>
</g>
<g>
	<g>
		<path d="M272.831,23.001c-5.952,0-11.771,1.666-16.831,4.72c-5.061-3.054-10.879-4.72-16.831-4.72    C220.88,23.001,206,38.277,206,57.055c0,27.531,40.58,50.488,45.207,53.014c1.493,0.815,3.144,1.224,4.793,1.224    s3.3-0.408,4.793-1.224C265.42,107.543,306,84.586,306,57.055C306,38.278,291.12,23.001,272.831,23.001z M256.001,89.712    C242.483,81.306,226,67.059,226,57.055c0-7.749,5.907-14.054,13.169-14.054c3.583,0,6.937,1.514,9.44,4.261    c1.895,2.079,4.578,3.264,7.391,3.264s5.496-1.185,7.391-3.264c2.504-2.747,5.857-4.261,9.44-4.261    c7.262,0,13.169,6.305,13.169,14.054C286,67.148,269.762,81.186,256.001,89.712z" fill="#ff8c89"/>
	</g>
</g>
<g>
	<g>
		<path d="M400.721,135.957c-7.804,0-15.418,2.373-21.88,6.689c-6.463-4.316-14.078-6.689-21.881-6.689    c-22.122,0-40.119,18.514-40.119,41.271c0,34.06,51.351,63.088,57.207,66.286c1.493,0.815,3.144,1.224,4.793,1.224    s3.3-0.408,4.793-1.224c5.855-3.197,57.207-32.226,57.207-66.286C440.841,154.471,422.843,135.957,400.721,135.957z     M378.862,223.185c-14.603-8.925-42.021-29.127-42.021-45.957c0-11.729,9.025-21.271,20.119-21.271    c5.513,0,10.659,2.315,14.49,6.519c1.895,2.079,4.578,3.264,7.391,3.264s5.496-1.186,7.392-3.265    c3.83-4.203,8.976-6.518,14.488-6.518c11.095,0,20.12,9.542,20.12,21.271C420.841,192.624,396.805,212.352,378.862,223.185z" fill="#ff8c89"/>
	</g>
</g>
<g>
	<g>
		<path d="M137.857,88.169c-7.804,0-15.418,2.373-21.881,6.688c-6.462-4.315-14.076-6.688-21.88-6.688    c-22.122,0-40.12,18.514-40.12,41.27c0,34.061,51.351,63.089,57.207,66.287c1.493,0.815,3.144,1.224,4.793,1.224    s3.3-0.408,4.793-1.224c5.855-3.197,57.207-32.226,57.207-66.287C177.976,106.683,159.979,88.169,137.857,88.169z M115.976,175.41    c-17.948-10.833-42-30.568-42-45.971c0-11.729,9.025-21.27,20.12-21.27c5.513,0,10.658,2.314,14.488,6.518    c1.896,2.08,4.578,3.265,7.392,3.265c2.814,0,5.496-1.185,7.392-3.265c3.83-4.203,8.976-6.518,14.489-6.518    c11.094,0,20.119,9.541,20.119,21.27C157.976,144.842,133.92,164.58,115.976,175.41z" fill="#ff8c89"/>
	</g>
</g>
<g>
	<g>
		<path d="M447.887,293.903c-5.522,0-10,4.478-10,10v37.921c0,5.522,4.478,10,10,10c5.522,0,10-4.478,10-10v-37.921    C457.887,298.381,453.409,293.903,447.887,293.903z" fill="#ff8c89"/>
	</g>
</g>
<g>
	<g>
		<path d="M421.67,345.268l-15.541-27.124c-2.746-4.792-8.857-6.453-13.649-3.705c-4.792,2.746-6.45,8.856-3.705,13.648    l15.541,27.124c1.848,3.225,5.218,5.03,8.687,5.03c1.686,0,3.395-0.427,4.962-1.325C422.757,356.17,424.415,350.06,421.67,345.268    z" fill="#ff8c89"/>
	</g>
</g>
<g>
</g>
<g>
</g>
<g>
</g>
<g>
</g>
<g>
</g>
<g>
</g>
<g>
</g>
<g>
</g>
<g>
</g>
<g>
</g>
<g>
</g>
<g>
</g>
<g>
</g>
<g>
</g>
<g>
</g>
</svg>
