<?xml version="1.0" encoding="iso-8859-1"?>
<!-- Generator: Adobe Illustrator 19.0.0, SVG Export Plug-In . SVG Version: 6.00 Build 0)  -->
<svg xmlns="http://www.w3.org/2000/svg" xmlns:xlink="http://www.w3.org/1999/xlink" version="1.1" id="Capa_1" x="0px" y="0px" viewBox="0 0 512 512" style="enable-background:new 0 0 512 512;" xml:space="preserve" width="512px" height="512px">
<g>
	<g>
		<path d="M334.632,248.93c-1.86-1.86-4.44-2.93-7.07-2.93s-5.21,1.07-7.07,2.93c-1.86,1.86-2.93,4.44-2.93,7.07    s1.07,5.21,2.93,7.069c1.86,1.86,4.44,2.931,7.07,2.931s5.21-1.07,7.07-2.931c1.86-1.859,2.93-4.439,2.93-7.069    S336.492,250.79,334.632,248.93z" fill="#ff8c89"/>
	</g>
</g>
<g>
	<g>
		<path d="M289.456,297.17c-12.036,0-23.755,4.066-33.326,11.384c-9.571-7.317-21.29-11.384-33.326-11.384    c-30.81,0-55.874,25.852-55.874,57.627c0,21.514,14.545,44.437,43.231,68.133c20.304,16.771,40.332,27.775,41.175,28.235    c1.494,0.815,3.143,1.224,4.793,1.224s3.299-0.408,4.793-1.224c0.843-0.46,20.873-11.464,41.175-28.235    c28.687-23.696,43.231-46.619,43.231-68.133C345.33,323.021,320.266,297.17,289.456,297.17z M256.126,430.883    c-23.03-13.561-69.196-46.795-69.196-76.087c0-20.748,16.094-37.627,35.874-37.627c9.886,0,19.096,4.132,25.935,11.636    c1.895,2.079,4.578,3.264,7.391,3.264s5.496-1.185,7.391-3.264c6.838-7.504,16.049-11.636,25.935-11.636    c19.782,0,35.875,16.88,35.875,37.627C325.331,384.028,279.151,417.303,256.126,430.883z" fill="#ff8c89"/>
	</g>
</g>
<g>
	<g>
		<path d="M478.831,143.562c-5.953,0-11.771,1.666-16.831,4.72c-5.061-3.054-10.878-4.72-16.831-4.72    c-18.29,0-33.169,15.277-33.169,34.054c0,27.532,40.58,50.487,45.206,53.014c1.494,0.816,3.143,1.224,4.793,1.224    s3.299-0.408,4.793-1.224c4.627-2.527,45.206-25.483,45.206-53.014C512,158.839,497.121,143.562,478.831,143.562z     M462.002,210.273c-13.519-8.407-30.001-22.653-30.001-32.658c0-7.75,5.908-14.054,13.169-14.054c3.583,0,6.936,1.513,9.44,4.261    c1.895,2.079,4.578,3.264,7.391,3.264c2.813,0,5.496-1.185,7.391-3.264c2.504-2.748,5.856-4.261,9.44-4.261    c7.261,0,13.169,6.305,13.169,14.054C492,187.708,475.762,201.746,462.002,210.273z" fill="#ff8c89"/>
	</g>
</g>
<g>
	<g>
		<path d="M66.837,177.708c-5.952,0-11.771,1.666-16.831,4.72c-5.061-3.054-10.879-4.72-16.831-4.72    c-18.29,0-33.169,15.276-33.169,34.054c0,27.532,40.579,50.488,45.206,53.014c1.494,0.815,3.143,1.224,4.793,1.224    c1.65,0,3.299-0.408,4.793-1.224c4.627-2.527,45.206-25.483,45.206-53.014C100.006,192.984,85.127,177.708,66.837,177.708z     M50.007,244.419c-13.519-8.407-30.001-22.653-30.001-32.658c0-7.749,5.908-14.054,13.169-14.054c3.583,0,6.936,1.513,9.44,4.261    c1.895,2.079,4.578,3.264,7.391,3.264c2.813,0,5.496-1.185,7.391-3.264c2.504-2.748,5.857-4.261,9.44-4.261    c7.261,0,13.169,6.305,13.169,14.054C80.006,221.854,63.768,235.892,50.007,244.419z" fill="#ff8c89"/>
	</g>
</g>
<g>
	<g>
		<path d="M145.205,19.857c-5.952,0-11.771,1.666-16.831,4.721c-5.061-3.055-10.878-4.721-16.831-4.721    c-18.29,0-33.169,15.277-33.169,34.054c0,27.531,40.579,50.487,45.206,53.014c1.494,0.816,3.143,1.224,4.793,1.224    c1.65,0,3.299-0.408,4.793-1.224c4.627-2.527,45.206-25.483,45.206-53.014C178.374,35.134,163.495,19.857,145.205,19.857z     M128.375,86.568c-13.765-8.53-30-22.566-30-32.659c-0.001-7.749,5.907-14.054,13.169-14.054c3.583,0,6.935,1.513,9.44,4.261    c1.895,2.079,4.578,3.264,7.391,3.264s5.496-1.185,7.391-3.264c2.505-2.748,5.857-4.261,9.44-4.261    c7.261,0,13.169,6.305,13.169,14.054C158.375,64.003,142.136,78.041,128.375,86.568z" fill="#ff8c89"/>
	</g>
</g>
<g>
	<g>
		<path d="M327.073,440.927c-1.86-1.86-4.44-2.93-7.07-2.93c-2.63,0-5.21,1.069-7.07,2.93c-1.86,1.86-2.93,4.44-2.93,7.07    c0,2.63,1.07,5.21,2.93,7.069c1.86,1.86,4.44,2.931,7.07,2.931c2.63,0,5.21-1.07,7.07-2.931c1.86-1.859,2.93-4.439,2.93-7.069    C330.002,445.367,328.932,442.787,327.073,440.927z" fill="#ff8c89"/>
	</g>
</g>
<g>
	<g>
		<path d="M246.074,192.99c-1.86-1.86-4.44-2.93-7.07-2.93s-5.21,1.07-7.07,2.93c-1.86,1.86-2.93,4.44-2.93,7.07    c0,2.63,1.07,5.21,2.93,7.07c1.86,1.86,4.44,2.93,7.07,2.93s5.21-1.07,7.07-2.93c1.86-1.86,2.93-4.44,2.93-7.07    C249.004,197.43,247.934,194.85,246.074,192.99z" fill="#ff8c89"/>
	</g>
</g>
<g>
	<g>
		<path d="M276.073,108.931c-1.86-1.861-4.44-2.93-7.07-2.93s-5.21,1.07-7.07,2.93s-2.93,4.44-2.93,7.07c0,2.63,1.07,5.21,2.93,7.07    c1.86,1.86,4.44,2.93,7.07,2.93s5.21-1.07,7.07-2.93c1.86-1.86,2.93-4.44,2.93-7.07    C279.003,113.371,277.933,110.791,276.073,108.931z" fill="#ff8c89"/>
	</g>
</g>
<g>
	<g>
		<path d="M246.074,45.932c-1.86-1.861-4.44-2.93-7.07-2.93s-5.21,1.07-7.07,2.93c-1.86,1.86-2.93,4.44-2.93,7.07    c0,2.63,1.07,5.21,2.93,7.07c1.86,1.86,4.44,2.93,7.07,2.93s5.21-1.07,7.07-2.93c1.86-1.86,2.93-4.44,2.93-7.07    C249.004,50.372,247.934,47.792,246.074,45.932z" fill="#ff8c89"/>
	</g>
</g>
<g>
	<g>
		<path d="M136.255,332.151c-5.523,0-10,4.478-10,10v0.081c0,5.522,4.477,9.96,10,9.96c5.523,0,10-4.519,10-10.041    C146.255,336.629,141.778,332.151,136.255,332.151z" fill="#ff8c89"/>
	</g>
</g>
<g>
	<g>
		<path d="M206.676,440.218c-25.498-12.853-45.391-35.684-54.579-62.637c-1.782-5.227-7.466-8.019-12.692-6.238    c-5.228,1.781-8.021,7.464-6.239,12.691c10.863,31.867,34.375,58.854,64.507,74.043c1.443,0.728,2.979,1.072,4.493,1.072    c3.657,0,7.179-2.013,8.938-5.501C213.591,448.717,211.608,442.705,206.676,440.218z" fill="#ff8c89"/>
	</g>
</g>
<g>
	<g>
		<path d="M501.993,491.996H335.93c53.551-28.651,90.071-85.136,90.071-149.998c0-36.689-11.504-71.626-33.27-101.035    c-19.865-26.841-46.579-46.917-77.586-58.394V20.003h9.463c5.523,0,10-4.477,10-10c0-5.523-4.477-10-10-10H187.467    c-5.523,0-10,4.477-10,10c0,5.523,4.477,10,10,10h9.394V182.57c-31.008,11.476-57.722,31.554-77.587,58.394    C97.51,270.373,86.006,305.31,86.006,341.999c0,64.862,36.52,121.347,90.071,149.998H10c-5.523,0-10,4.478-10,10    c0,5.522,4.477,10,10,10h491.993c5.523,0,10-4.478,10-10C511.993,496.475,507.516,491.996,501.993,491.996z M106.006,341.998    c0-27.47,7.378-53.528,20.543-75.999h157.108c5.523,0,10-4.478,10-10c0-5.523-4.477-10-10-10H140.585    c17.74-21.333,41.492-37.813,69.344-46.792c4.13-1.332,6.93-5.175,6.932-9.514V20.004h78.285v168.259v1.424    c-0.001,4.342,2.799,8.188,6.932,9.521c62.16,20.041,103.925,77.425,103.925,142.792c0,82.709-67.289,149.998-149.998,149.998    S106.006,424.707,106.006,341.998z" fill="#ff8c89"/>
	</g>
</g>
<g>
</g>
<g>
</g>
<g>
</g>
<g>
</g>
<g>
</g>
<g>
</g>
<g>
</g>
<g>
</g>
<g>
</g>
<g>
</g>
<g>
</g>
<g>
</g>
<g>
</g>
<g>
</g>
<g>
</g>
</svg>
