<?xml version="1.0" encoding="iso-8859-1"?>
<!-- Generator: Adobe Illustrator 19.0.0, SVG Export Plug-In . SVG Version: 6.00 Build 0)  -->
<svg xmlns="http://www.w3.org/2000/svg" xmlns:xlink="http://www.w3.org/1999/xlink" version="1.1" id="Capa_1" x="0px" y="0px" viewBox="0 0 512 512" style="enable-background:new 0 0 512 512;" xml:space="preserve" width="512px" height="512px">
<g>
	<g>
		<path d="M397.262,286.777l-0.353-0.216c-4.717-2.87-10.87-1.376-13.74,3.343c-2.871,4.717-1.375,10.869,3.342,13.74l0.32,0.196    c1.628,0.995,3.428,1.469,5.206,1.469c3.368,0,6.656-1.701,8.542-4.785C403.458,295.813,401.974,289.658,397.262,286.777z" fill="#ff8c89"/>
	</g>
</g>
<g>
	<g>
		<path d="M424.556,313.467c-2.998-4.64-9.188-5.971-13.825-2.975c-4.639,2.997-5.971,9.188-2.974,13.825    c6.873,10.64,10.505,22.993,10.505,35.725c0,5.522,4.477,10,10,10c5.523,0,10-4.478,10-10    C438.26,343.452,433.521,327.347,424.556,313.467z" fill="#ff8c89"/>
	</g>
</g>
<g>
	<g>
		<path d="M183.018,259.01h-10.226c-5.523,0-10,4.478-10,10s4.477,10,10,10h10.226c5.523,0,10-4.478,10-10    S188.541,259.01,183.018,259.01z" fill="#ff8c89"/>
	</g>
</g>
<g>
	<g>
		<path d="M117.134,259.01h-10.226c-5.523,0-10,4.478-10,10s4.477,10,10,10h10.226c5.523,0,10-4.478,10-10    S122.657,259.01,117.134,259.01z" fill="#ff8c89"/>
	</g>
</g>
<g>
	<g>
		<path d="M502,491.994h-27.995V360.042c0-50.095-30.466-93.203-73.84-111.783c15.877-10.727,26.338-28.891,26.338-49.452v-16.212    c0-23.295-18.952-42.246-42.246-42.246c-12.912,0-24.491,5.824-32.247,14.981c-7.756-9.158-19.334-14.981-32.248-14.981    c-23.295,0-42.246,18.951-42.246,42.246v16.212c0,20.562,10.46,38.725,26.338,49.452c-22.056,9.449-40.769,25.241-53.84,45.069    V131.265c0-3.76-2.109-7.201-5.458-8.909l-58.354-29.748c-0.002,0.004-0.004,0.007-0.006,0.011    c-1.385-0.706-2.931-1.102-4.535-1.102H148.66c22.173-3.277,39.245-22.429,39.245-45.498c0-25.363-20.635-45.998-45.998-45.998    c-25.363,0-45.998,20.635-45.998,45.998c0,23.069,17.072,42.221,39.245,45.498h-28.777c-1.603,0-3.147,0.396-4.532,1.101    c-0.002-0.004-0.005-0.008-0.007-0.012l-58.406,29.748c-3.351,1.707-5.461,5.15-5.461,8.911v170.744c0,5.522,4.477,10,10,10    h26.499l10.05,179.986H10c-5.523,0-10,4.478-10,10c0,5.522,4.477,10,10,10H502c5.523,0,10-4.478,10-10    C512,496.472,507.523,491.994,502,491.994z M186.466,115.19l5.552,2.83v28.353l-35.707,35.707L186.466,115.19z M115.908,46.019    c0-14.336,11.664-25.999,25.999-25.999c14.335,0,25.999,11.662,25.999,25.999s-11.664,25.999-25.999,25.999    C127.572,72.018,115.908,60.356,115.908,46.019z M166.185,111.516l-22.165,49.166l-22.165-49.166H166.185z M101.573,115.187    l30.859,68.449l-37.263-37.263v-27.924h-0.001L101.573,115.187z M80.023,192.054c-5.523,0-10,4.478-10,10v89.954H57.972V137.393    l17.196-8.759v21.88c0,2.652,1.054,5.195,2.929,7.071l55.924,55.923v78.5H90.022v-89.954    C90.022,196.532,85.545,192.054,80.023,192.054z M183.488,491.994H154.02V357.268c0-5.522-4.477-10-10-10s-10,4.478-10,10v134.725    h-29.47l-10.05-179.986h99.037L183.488,491.994z M198.018,202.068v89.941H154.02v-79.356l55.069-55.068    c1.875-1.876,2.929-4.419,2.929-7.071v-22.299l17.999,9.176v154.618h-11.999v-89.941c0-5.522-4.477-10-10-10    S198.018,196.546,198.018,202.068z M230.017,360.042v131.952h-26.498l10.05-179.986h26.353    C233.553,326.751,230.017,342.99,230.017,360.042z M297.517,198.807v-16.212h0c0-12.268,9.98-22.247,22.248-22.247    c12.267,0,22.247,9.98,22.247,22.247c0,5.522,4.477,10,10,10s10-4.478,10-10c0-12.268,9.98-22.247,22.247-22.247    c12.268,0,22.247,9.98,22.247,22.247v16.212c0,21.857-17.782,39.639-39.639,39.639h-29.71    C315.299,238.446,297.517,220.665,297.517,198.807z M250.015,398.707v-38.664c0.001-55.991,45.553-101.543,101.544-101.543h0.905    c55.992,0,101.543,45.552,101.543,101.543v38.664v39.312c-0.864,0.057-1.731,0.085-2.6,0.085h-0.401    c-21.724,0-39.397-17.674-39.397-39.397c0-5.522-4.477-10-10-10s-10,4.478-10,10c0,21.724-17.674,39.397-39.398,39.397h-0.401    c-21.724,0-39.397-17.674-39.397-39.397c0-5.522-4.477-10-10-10c-5.523,0-10,4.478-10,10c0,21.724-17.673,39.397-39.397,39.397    h-0.401c-0.868,0-1.735-0.028-2.6-0.085V398.707z M454.007,491.994H250.016V458.04c0.866,0.038,1.732,0.064,2.6,0.064h0.401    c20.574,0,38.734-10.519,49.397-26.457c10.664,15.938,28.823,26.457,49.397,26.457h0.401c20.575,0,38.734-10.519,49.398-26.457    c10.664,15.938,28.823,26.457,49.397,26.457h0.401c0.868,0,1.734-0.026,2.6-0.064V491.994z" fill="#ff8c89"/>
	</g>
</g>
<g>
	<g>
		<path d="M352.012,35.074c-25.363,0-45.998,20.634-45.998,45.998c0,25.363,20.635,45.998,45.998,45.998    c25.363,0,45.998-20.635,45.998-45.998C398.01,55.709,377.375,35.074,352.012,35.074z M352.012,107.071    c-14.335,0-25.999-11.663-25.999-25.999c0-14.336,11.664-25.999,25.999-25.999c14.335,0,25.999,11.663,25.999,25.999    C378.01,95.408,366.347,107.071,352.012,107.071z" fill="#ff8c89"/>
	</g>
</g>
<g>
	<g>
		<path d="M352.012,0.007c-51.83,0-93.996,42.166-93.996,93.996v47.518c0,5.522,4.477,10,10,10s10-4.478,10-10V94.003    c0-40.802,33.195-73.997,73.997-73.997c40.802,0,73.997,33.195,73.997,73.997v47.033c0,5.522,4.477,10,10,10s10-4.478,10-10    V94.003C446.008,42.173,403.841,0.007,352.012,0.007z" fill="#ff8c89"/>
	</g>
</g>
<g>
</g>
<g>
</g>
<g>
</g>
<g>
</g>
<g>
</g>
<g>
</g>
<g>
</g>
<g>
</g>
<g>
</g>
<g>
</g>
<g>
</g>
<g>
</g>
<g>
</g>
<g>
</g>
<g>
</g>
</svg>
