<?xml version="1.0" encoding="iso-8859-1"?>
<!-- Generator: Adobe Illustrator 19.0.0, SVG Export Plug-In . SVG Version: 6.00 Build 0)  -->
<svg xmlns="http://www.w3.org/2000/svg" xmlns:xlink="http://www.w3.org/1999/xlink" version="1.1" id="Capa_1" x="0px" y="0px" viewBox="0 0 512.001 512.001" style="enable-background:new 0 0 512.001 512.001;" xml:space="preserve" width="512px" height="512px">
<g>
	<g>
		<path d="M255.967,52.027C143.495,52.027,51.993,143.529,51.993,256c0,5.522,4.476,9.999,9.999,9.999s9.999-4.476,9.999-9.999    c0-101.445,82.531-183.976,183.976-183.976c5.522,0,9.999-4.476,9.999-9.999C265.966,56.503,261.489,52.027,255.967,52.027z" fill="#ff8c89"/>
	</g>
</g>
<g>
	<g>
		<path d="M436.963,422.857c-3.903-3.905-10.236-3.905-14.14-0.001c-92.004,92.004-241.707,92.004-333.711,0    c-92.005-92.005-92.005-241.707,0-333.711C171.55,6.705,303.98-2.863,397.153,66.889c4.42,3.31,10.687,2.408,13.996-2.013    c3.31-4.42,2.409-10.687-2.013-13.996C360.33,14.341,299.778-3.507,238.636,0.617C176.899,4.783,118.775,31.2,74.971,75.004    C26.626,123.349,0,187.628,0,256c0,68.371,26.626,132.65,74.971,180.997c48.346,48.346,112.625,74.97,180.996,74.97    s132.65-26.626,180.996-74.97C440.867,433.092,440.867,426.761,436.963,422.857z" fill="#ff8c89"/>
	</g>
</g>
<g>
	<g>
		<path d="M437.075,75.116l-0.189-0.19c-3.894-3.914-10.226-3.93-14.14-0.037c-3.915,3.894-3.931,10.226-0.037,14.14l0.189,0.191    c1.954,1.964,4.52,2.947,7.088,2.947c2.551,0,5.101-0.97,7.052-2.911C440.953,85.361,440.969,79.03,437.075,75.116z" fill="#ff8c89"/>
	</g>
</g>
<g>
	<g>
		<path d="M511.934,301.695V95.188c0-3.188-1.52-6.183-4.09-8.066c-2.572-1.884-5.887-2.428-8.925-1.467l-190.003,60.118    c-4.157,1.315-6.982,5.172-6.982,9.533v11.874c-14.094-7.333-29.702-11.168-45.966-11.168c-55.133,0-99.987,44.854-99.987,99.987    c0,10.38,1.586,20.614,4.714,30.419c1.356,4.25,5.288,6.962,9.523,6.962c1.007,0,2.031-0.154,3.042-0.476    c5.261-1.679,8.165-7.304,6.486-12.564c-2.5-7.837-3.768-16.026-3.768-24.341c0-44.106,35.883-79.99,79.99-79.99    c16.666,0,32.476,5.013,45.966,14.524v140.38c-5.141-2.77-10.981-4.345-17.174-4.345c-7.017,0-13.869,2.072-19.739,5.852    c-5.871-3.78-12.722-5.852-19.739-5.852c-20.497,0-37.172,17.165-37.172,38.263c0,31.335,46.778,57.835,52.112,60.753    c1.495,0.818,3.147,1.227,4.799,1.227s3.305-0.409,4.799-1.227c5.334-2.919,52.112-29.417,52.112-60.753    c0-0.18-0.011-0.357-0.013-0.536c0.002-0.088,0.013-0.173,0.013-0.261V221.558l170.006-53.791v102.178    c-5.125-2.748-10.942-4.31-17.109-4.31c-7.017,0-13.869,2.072-19.739,5.852c-5.871-3.78-12.723-5.852-19.74-5.852    c-20.496,0-37.171,17.165-37.171,38.263c0,31.336,46.778,57.835,52.112,60.753c1.495,0.818,3.147,1.227,4.799,1.227    s3.305-0.409,4.799-1.228c5.334-2.918,52.112-29.418,52.112-60.753C512,303.157,511.975,302.424,511.934,301.695z     M265.012,405.234c-14.488-8.933-36.907-26.645-36.907-40.403c0-10.072,7.705-18.266,17.175-18.266    c4.691,0,9.075,1.979,12.343,5.571c1.895,2.083,4.58,3.271,7.396,3.271c2.816,0,5.501-1.188,7.396-3.271    c3.269-3.592,7.652-5.571,12.343-5.571c9.47,0,17.174,8.194,17.174,18.266C301.933,378.538,279.497,396.28,265.012,405.234z     M321.93,200.583v-37.954l170.006-53.79v37.953L321.93,200.583z M455.088,344.295c-14.489-8.958-36.913-26.695-36.913-40.399    c0-10.072,7.704-18.266,17.174-18.266c4.691,0,9.075,1.979,12.343,5.571c1.895,2.083,4.58,3.271,7.396,3.271    c2.816,0,5.501-1.188,7.396-3.271c3.269-3.593,7.652-5.571,12.343-5.571c9.031,0,16.44,7.456,17.109,16.882v1.403    c0,0.218,0.019,0.432,0.033,0.646C491.269,318.171,469.341,335.484,455.088,344.295z" fill="#ff8c89"/>
	</g>
</g>
<g>
	<g>
		<path d="M255.967,103.779c-83.935,0-152.221,68.286-152.221,152.221c0,5.522,4.476,9.999,9.999,9.999    c5.522,0,9.999-4.476,9.999-9.999c0-72.909,59.315-132.224,132.224-132.224c5.522,0,9.999-4.476,9.999-9.999    S261.489,103.779,255.967,103.779z" fill="#ff8c89"/>
	</g>
</g>
<g>
	<g>
		<path d="M201.215,314.315l-0.624-0.592c-3.988-3.819-10.317-3.683-14.137,0.306c-3.82,3.989-3.683,10.318,0.306,14.137    c0.254,0.243,0.509,0.485,0.765,0.726c1.93,1.812,4.388,2.71,6.843,2.71c2.665,0,5.322-1.059,7.291-3.154    C205.44,324.422,205.241,318.095,201.215,314.315z" fill="#ff8c89"/>
	</g>
</g>
<g>
</g>
<g>
</g>
<g>
</g>
<g>
</g>
<g>
</g>
<g>
</g>
<g>
</g>
<g>
</g>
<g>
</g>
<g>
</g>
<g>
</g>
<g>
</g>
<g>
</g>
<g>
</g>
<g>
</g>
</svg>
