<?xml version="1.0" encoding="iso-8859-1"?>
<!-- Generator: Adobe Illustrator 19.0.0, SVG Export Plug-In . SVG Version: 6.00 Build 0)  -->
<svg xmlns="http://www.w3.org/2000/svg" xmlns:xlink="http://www.w3.org/1999/xlink" version="1.1" id="Capa_1" x="0px" y="0px" viewBox="0 0 512 512" style="enable-background:new 0 0 512 512;" xml:space="preserve" width="512px" height="512px">
<g>
	<g>
		<path d="M412.109,413.938c-1.859-1.86-4.439-2.92-7.069-2.92c-2.63,0-5.21,1.061-7.07,2.92c-1.86,1.87-2.93,4.45-2.93,7.08    s1.069,5.21,2.93,7.07s4.44,2.93,7.07,2.93c2.63,0,5.21-1.069,7.069-2.93c1.86-1.86,2.931-4.44,2.931-7.07    C415.04,418.388,413.97,415.808,412.109,413.938z" fill="#ff8c89"/>
	</g>
</g>
<g>
	<g>
		<path d="M82.082,445.958c-1.86-1.86-4.44-2.92-7.07-2.92c-2.63,0-5.21,1.06-7.07,2.92c-1.859,1.87-2.93,4.439-2.93,7.08    c0,2.63,1.07,5.2,2.93,7.069c1.86,1.861,4.44,2.931,7.07,2.931c2.63,0,5.2-1.07,7.07-2.931c1.859-1.869,2.93-4.439,2.93-7.069    C85.012,450.396,83.942,447.827,82.082,445.958z" fill="#ff8c89"/>
	</g>
</g>
<g>
	<g>
		<path d="M426.289,177.969c-24.433-42.83-65.595-74.912-112.933-88.021c-5.324-1.472-10.831,1.646-12.307,6.969    c-1.474,5.322,1.646,10.832,6.969,12.307c42.287,11.71,79.062,40.38,100.899,78.656c1.845,3.234,5.221,5.047,8.694,5.047    c1.68,0,3.383-0.424,4.946-1.316C427.356,188.872,429.026,182.766,426.289,177.969z" fill="#ff8c89"/>
	</g>
</g>
<g>
	<g>
		<path d="M264.225,83.158l-1.069-0.003c-5.522,0-10,4.478-10,10s4.477,10,9.999,10l0.954,0.003c0.02,0,0.039,0,0.059,0    c5.496,0,9.967-4.439,9.999-9.942C274.199,87.694,269.748,83.191,264.225,83.158z" fill="#ff8c89"/>
	</g>
</g>
<g>
	<g>
		<path d="M511.999,278c0-5.522-4.478-10-10-10h-12.223c-2.454-58.748-26.482-113.63-68.313-155.461    c-34.026-34.027-76.69-56.268-123.044-64.708v-5.413C298.419,19.028,279.391,0,256.001,0s-42.418,19.028-42.418,42.418v5.413    c-46.354,8.441-89.018,30.682-123.044,64.708C48.708,154.37,24.68,209.251,22.226,268H10.003c-5.522,0-10,4.478-10,10    c0,29.441,19.988,54.287,47.103,61.719L5.644,359.802c-4.971,2.408-7.048,8.389-4.641,13.359    c2.409,4.973,8.393,7.046,13.359,4.641L64.76,353.39l55.799,115.197l-50.398,24.411c-4.971,2.407-7.048,8.389-4.641,13.359    c1.728,3.566,5.294,5.643,9.007,5.643c1.463,0,2.948-0.322,4.353-1.002l59.398-28.771c2.387-1.156,4.217-3.213,5.087-5.719    c0.87-2.505,0.71-5.254-0.446-7.641l-4.722-9.748l143.412,29.157c6.709,1.364,13.496,2.031,20.261,2.031    c24.687,0,49.034-8.897,67.861-25.324l18.736-16.348c4.162-3.631,4.592-9.948,0.961-14.109c-3.632-4.163-9.948-4.592-14.109-0.961    l-18.736,16.348c-19.323,16.858-45.862,23.872-70.989,18.764l-158.362-32.196l-29.947-61.826l69.341-27.906    c14.965-6.023,31.509-6.177,46.582-0.432l71.465,27.235c3.836,1.462,6.788,4.366,8.313,8.177    c1.525,3.813,1.391,7.952-0.378,11.656c-3.089,6.467-10.32,9.699-17.199,7.678L217.604,384.1    c-5.296-1.549-10.856,1.479-12.412,6.779c-1.555,5.3,1.48,10.856,6.779,12.412l57.804,16.964c3.27,0.959,6.57,1.42,9.822,1.419    c9.755,0,19.045-4.148,25.559-11.412l3.517,0.218c2.414,0.15,4.823,0.225,7.231,0.225c25.257-0.001,49.973-8.183,70.281-23.393    l52.606-39.395c4.255-3.188,10.268-2.981,14.296,0.488c2.548,2.193,3.957,5.253,3.969,8.615c0.011,3.362-1.379,6.432-3.912,8.643    l-29.155,25.438c-4.161,3.631-4.592,9.948-0.961,14.109c3.631,4.162,9.947,4.591,14.109,0.961l29.155-25.438    c6.87-5.995,10.793-14.662,10.763-23.779c-0.022-6.962-2.355-13.642-6.53-19.061C494.732,328.761,511.999,305.364,511.999,278z     M233.583,42.418L233.583,42.418C233.583,30.057,243.64,20,256.001,20s22.418,10.057,22.418,22.418v2.646    c-7.406-0.699-14.884-1.062-22.418-1.062s-15.012,0.362-22.418,1.062V42.418z M256.001,64.003    c114.646,0,208.515,90.624,213.757,203.997H42.244C47.486,154.627,141.355,64.003,256.001,64.003z M88.545,356.614l-7.079-14.615    h43.395L88.545,356.614z M374.197,371.306c-17.403,13.031-38.701,19.836-60.375,19.37c0.567-5.512-0.177-11.143-2.27-16.374    c-3.572-8.928-10.774-16.012-19.76-19.437l-33.761-12.866h155.299L374.197,371.306z M448,321.999H64.003    c-20.823,0-38.314-14.539-42.854-34h469.703C486.314,307.461,468.822,321.999,448,321.999z" fill="#ff8c89"/>
	</g>
</g>
<g>
	<g>
		<path d="M274.764,139.52c-6.658,0-13.163,1.933-18.763,5.462c-5.6-3.529-12.104-5.462-18.763-5.462    c-19.756,0-35.828,16.515-35.828,36.814c0,29.468,44.027,59.645,49.047,62.987c1.679,1.118,3.611,1.678,5.544,1.678    s3.865-0.56,5.544-1.678c5.02-3.344,49.047-33.521,49.047-62.987C310.592,156.035,294.52,139.52,274.764,139.52z M256.015,218.755    c-13.947-10.418-34.604-29.471-34.604-42.421c0-9.271,7.101-16.814,15.828-16.814c4.321,0,8.36,1.819,11.372,5.124    c1.895,2.079,4.578,3.264,7.391,3.264c2.813,0,5.496-1.185,7.391-3.264c3.012-3.305,7.051-5.124,11.372-5.124    c8.728,0,15.828,7.543,15.828,16.814C290.592,188.367,271.883,206.983,256.015,218.755z" fill="#ff8c89"/>
	</g>
</g>
<g>
</g>
<g>
</g>
<g>
</g>
<g>
</g>
<g>
</g>
<g>
</g>
<g>
</g>
<g>
</g>
<g>
</g>
<g>
</g>
<g>
</g>
<g>
</g>
<g>
</g>
<g>
</g>
<g>
</g>
</svg>
