<?xml version="1.0"?>
<svg xmlns="http://www.w3.org/2000/svg" xmlns:xlink="http://www.w3.org/1999/xlink" version="1.1" id="Capa_1" x="0px" y="0px" viewBox="0 0 512 512" style="enable-background:new 0 0 512 512;" xml:space="preserve" width="512px" height="512px" class=""><g><path style="fill:#FFFFFF" d="M174.784,502.001L174.784,502.001c-41.278,0-74.742-33.463-74.742-74.742l0,0  c0,41.278-33.463,74.742-74.742,74.742l0,0H174.784z" data-original="#C8F5FF" class="" data-old_color="#C8F5FF"/><path style="fill:#FFFFFF" d="M306.595,92.582V9.999h-51.557v82.583c0,27.868-12.093,54.364-33.143,72.624l0,0  c-21.052,18.26-33.143,44.756-33.143,72.624v264.114h184.131V237.829c0-27.868-12.093-54.364-33.143-72.624l0,0  C318.688,146.944,306.595,120.448,306.595,92.582z" data-original="#F5B955" class="" data-old_color="#F5B955"/><path style="fill:#FFFFFF" d="M255.039,9.999v82.583c0,5.443-0.468,10.833-1.367,16.121h54.291  c-0.899-5.287-1.367-10.677-1.367-16.121V9.999H255.039z" data-original="#8CA5DC" class="" data-old_color="#8CA5DC"/><circle style="fill:#FFFFFF" cx="279.549" cy="289.967" r="55.994" data-original="#FF5A5A" class="active-path" data-old_color="#893939"/><path style="fill:#FFFFFF" d="M501.012,461.948H235.041l0,0c0,22.089,17.907,39.995,39.995,39.995h185.98  C483.105,501.943,501.012,484.036,501.012,461.948L501.012,461.948z" data-original="#78D2FA" class="" data-old_color="#ffffff"/><path style="fill:#FFFFFF" d="M185.829,297.741l-27.717-94.764h-58.056H42l-27.716,94.764  c-7.286,24.912-2.495,51.798,12.948,72.659l0,0c15.647,21.138,40.389,33.606,66.689,33.606h12.27  c26.299,0,51.042-12.469,66.689-33.606l0,0C188.323,349.539,193.114,322.653,185.829,297.741z" data-original="#C8F5FF" class="" data-old_color="#C8F5FF"/><path style="fill:#FFFFFF" d="M187.068,302.499l-3.126-11.21l0,0c-23.164-23.164-60.72-23.164-83.884,0l0,0  c-23.164,23.164-60.721,23.164-83.884,0l0,0l0,0l-1.887,6.453C7,322.654,11.791,349.54,27.234,370.401l0,0  c15.647,21.138,40.389,33.606,66.689,33.606h12.27c26.3,0,51.042-12.469,66.689-33.606l0,0  C187.345,350.861,192.464,326.036,187.068,302.499z" data-original="#FF5A5A" class="active-path" data-old_color="#893939"/><g>
	<path style="fill:#FFFFFF" d="M428.905,419.433l67.171-67.171c3.945-16.244,3.304-33.587-2.413-50l0,0l-64.527,64.527   c3.105,18.573,0.18,37.559-8.152,54.206C423.649,420.599,426.289,420.069,428.905,419.433z" data-original="#46C373" class="" data-old_color="#46C373"/>
	<path style="fill:#FFFFFF" d="M451.284,461.948c7.891-4.106,15.237-9.427,21.729-15.919l2.073-2.073   c24.009-24.009,32.168-59.637,21-91.703l0,0L386.391,461.948H451.284z" data-original="#46C373" class="" data-old_color="#46C373"/>
</g><path style="fill:#FFFFFF" d="M315.734,461.948h64.893c7.891-4.106,15.237-9.427,21.729-15.919l2.072-2.073  c24.009-24.009,32.168-59.637,21-91.703l0,0L315.734,461.948z" data-original="#A5DC69" class="" data-old_color="#A5DC69"/><g>
	<circle style="fill:#FFFFFF" cx="268.79" cy="433.951" r="27.997" data-original="#32C8AF" class="" data-old_color="#32C8AF"/>
	<circle style="fill:#FFFFFF" cx="321.824" cy="415.953" r="27.997" data-original="#32C8AF" class="" data-old_color="#32C8AF"/>
	<circle style="fill:#FFFFFF" cx="281.919" cy="386.046" r="21.637" data-original="#32C8AF" class="" data-old_color="#32C8AF"/>
</g><path d="M372.885,345.711c-2.63,0-5.209,1.069-7.069,2.93c-1.86,1.86-2.93,4.44-2.93,7.069s1.07,5.209,2.93,7.068  c1.86,1.86,4.43,2.931,7.069,2.931c2.63,0,5.209-1.07,7.069-2.931c1.86-1.859,2.93-4.439,2.93-7.068s-1.07-5.209-2.93-7.069  C378.095,346.78,375.515,345.711,372.885,345.711z" data-original="#000000" class="" style="fill:#FF8C89" data-old_color="#CDC3C3"/><path d="M501.012,451.949h-19.778l0.922-0.922c25.856-25.857,35.223-64.533,24.282-99.285c3.722-17.59,2.589-35.769-3.333-52.768  c-1.132-3.251-3.856-5.689-7.21-6.458c-3.353-0.765-6.869,0.243-9.302,2.677l-52.358,52.357c-1.351-2.531-3.731-4.391-6.575-5.042  c-3.356-0.766-6.868,0.243-9.303,2.677l-60.078,60.077c-4.63-15.759-19.216-27.303-36.454-27.303c-3.121,0-6.152,0.386-9.056,1.099  c-2.663-11.76-11.89-21.05-23.614-23.805c31.849-4.667,56.384-32.16,56.384-65.286c0-36.389-29.604-65.993-65.993-65.993  s-65.993,29.604-65.993,65.993c0,34.24,26.213,62.464,59.624,65.68c-13.203,3.804-22.892,15.986-22.892,30.397  c0,4.735,1.053,9.228,2.926,13.266c-13.204,5.96-22.419,19.241-22.419,34.642c0,6.508,1.647,12.638,4.542,17.998h-0.293  c-5.522,0-9.999,4.477-9.999,9.999c0,11.247,3.735,21.635,10.026,29.997H198.75V329.162c0.488-5.486,0.489-11.022,0-16.534v-74.799  c0-24.982,10.824-48.699,29.697-65.071c16.533-14.339,28.046-33.258,33.324-54.057h38.093c5.278,20.8,16.791,39.717,33.324,54.057  c18.873,16.371,29.697,40.088,29.697,65.071v81.135c0,5.521,4.476,9.999,9.999,9.999c5.522,0,9.999-4.477,9.999-9.999v-81.136  c0-30.783-13.337-60.006-36.591-80.177c-18.873-16.37-29.697-40.087-29.697-65.071V9.999c0-5.521-4.477-9.999-9.999-9.999h-51.557  c-5.522,0-9.999,4.477-9.999,9.999v82.583c0,24.983-10.824,48.7-29.697,65.071c-23.253,20.171-36.591,49.393-36.591,80.177v0.101  l-11.044-37.76c-1.247-4.263-5.155-7.191-9.597-7.191h-18.56c-5.522,0-9.999,4.477-9.999,9.999s4.476,9.999,9.999,9.999h11.067  l16.256,55.582c-24.78-9.489-53.946-4.282-73.89,15.66c-9.314,9.315-21.699,14.444-34.871,14.444  c-11.24,0-21.899-3.746-30.573-10.629l21.951-75.059h9.567c5.522,0,9.999-4.477,9.999-9.999s-4.476-9.999-9.999-9.999H42  c-4.441,0-8.35,2.93-9.597,7.191L6.596,288.408c-0.007,0.024-0.014,0.048-0.021,0.072l-1.888,6.454  c-8.115,27.746-2.692,58.181,14.508,81.415c16.683,22.537,42.942,36.385,70.847,37.565v13.345c0,35.699-29.044,64.743-64.743,64.743  c-5.522,0-9.999,4.477-9.999,9.999c0,5.521,4.476,9.999,9.999,9.999h149.483c2.735,0,5.21-1.1,7.015-2.879  c1.8,1.743,4.249,2.821,6.952,2.821h272.265c27.567,0,49.994-22.427,49.994-49.994C511.011,456.426,506.534,451.949,501.012,451.949  z M265.038,19.998h31.559v72.584c0,2.049,0.063,4.09,0.18,6.121h-31.919c0.117-2.032,0.18-4.073,0.18-6.121L265.038,19.998  L265.038,19.998z M35.269,364.451c-11.864-16.026-16.586-36.416-13.235-55.904c10.759,6.584,23.146,10.113,36.08,10.113  c18.515,0,35.921-7.21,49.012-20.302c18.65-18.649,48.639-19.209,67.972-1.685l1.133,3.875c1.244,4.254,2.077,8.588,2.521,12.946  v14.813c-1.31,12.944-6.033,25.505-13.908,36.143c-13.7,18.508-35.626,29.558-58.653,29.558H93.922  C70.895,394.008,48.969,382.959,35.269,364.451z M79.918,492.002c7.805-6.594,14.386-14.582,19.401-23.56  c0.24,0.017,0.479,0.037,0.723,0.037c0.244,0,0.483-0.019,0.723-0.037c5.015,8.978,11.597,16.966,19.401,23.56H79.918z   M110.041,427.26v-13.344c26.74-1.123,51.966-13.882,68.711-34.769v113.678c-1.217-0.527-2.558-0.823-3.969-0.823  C139.085,492.002,110.041,462.959,110.041,427.26z M468.015,436.887l-2.072,2.072c-5.102,5.102-10.874,9.464-17.182,12.991h-38.185  l0.922-0.922c0.426-0.427,0.836-0.866,1.253-1.3l23.215-23.215c0.003-0.003,0.006-0.005,0.009-0.008l54.454-54.453  C493.183,395.614,485.128,419.773,468.015,436.887z M488.033,322.033c1.001,8.365,0.648,16.866-1.075,25.206l-47.49,47.49  c1.098-8.033,1.191-16.212,0.26-24.392L488.033,322.033z M419.772,372.051c2.67,22.843-4.82,46.248-20.873,63.248l-4.962,4.962  c-4.765,4.541-10.072,8.467-15.832,11.688h-38.231L419.772,372.051z M303.552,449.255c1.946,1.072,3.999,1.972,6.132,2.694h-7.444  C302.714,451.072,303.147,450.171,303.552,449.255z M339.823,415.954c0,9.924-8.074,17.998-17.998,17.998  s-17.998-8.074-17.998-17.998s8.074-17.998,17.998-17.998S339.823,406.03,339.823,415.954z M233.551,289.967  c0-25.361,20.634-45.995,45.995-45.995s45.995,20.634,45.995,45.995s-20.634,45.995-45.995,45.995S233.551,315.328,233.551,289.967z   M281.921,374.406c6.417,0,11.638,5.22,11.638,11.638s-5.22,11.638-11.638,11.638c-6.416,0-11.638-5.22-11.638-11.638  S275.504,374.406,281.921,374.406z M250.789,433.951c0-9.924,8.074-17.998,17.998-17.998s17.998,8.074,17.998,17.998  c0,9.924-8.074,17.998-17.998,17.998S250.789,443.875,250.789,433.951z M461.017,491.944h-88.134h-97.846  c-13.037,0-24.156-8.358-28.284-19.998h242.547C485.173,483.586,474.052,491.944,461.017,491.944z" data-original="#000000" class="" style="fill:#FF8C89" data-old_color="#CDC3C3"/><path d="M100.056,212.976c-2.63,0-5.209-1.07-7.069-2.931c-1.86-1.859-2.93-4.438-2.93-7.068c0-2.63,1.07-5.209,2.93-7.069  c1.86-1.86,4.439-2.93,7.069-2.93s5.209,1.069,7.069,2.93c1.86,1.861,2.93,4.439,2.93,7.069c0,2.63-1.07,5.209-2.93,7.068  C105.266,211.906,102.686,212.976,100.056,212.976z" data-original="#000000" class="" style="fill:#FF8C89" data-old_color="#CDC3C3"/></g> </svg>
