<?xml version="1.0" standalone="no"?>
<!DOCTYPE svg PUBLIC "-//W3C//DTD SVG 20010904//EN"
 "http://www.w3.org/TR/2001/REC-SVG-20010904/DTD/svg10.dtd">
<svg version="1.0" xmlns="http://www.w3.org/2000/svg"
 width="1280.000000pt" height="333.000000pt" viewBox="0 0 1280.000000 333.000000"
 preserveAspectRatio="xMidYMid meet">
<g transform="translate(0.000000,333.000000) scale(0.100000,-0.100000)"
fill="#ff9800" stroke="none">
<path d="M148 3316 c-39 -17 -96 -74 -121 -121 -20 -36 -22 -58 -25 -233 -3
-143 0 -197 9 -208 9 -11 9 -18 1 -26 -16 -16 -15 -78 0 -78 9 0 9 -3 0 -12
-8 -8 -12 -47 -12 -109 l0 -96 31 -7 c17 -3 40 -1 51 5 17 9 19 8 16 -7 -5
-26 -58 -38 -74 -16 -12 16 -13 16 -20 -2 -4 -10 -2 -21 4 -25 8 -5 9 -17 3
-38 -5 -18 -10 -109 -11 -202 -1 -184 0 -188 51 -161 10 6 19 7 19 3 0 -4 -15
-15 -33 -24 l-32 -16 -3 -308 c-2 -240 1 -310 10 -317 10 -6 10 -8 1 -8 -9 0
-13 -23 -13 -80 0 -65 3 -81 17 -90 17 -10 17 -10 0 -20 -15 -10 -17 -30 -17
-189 0 -177 0 -179 24 -194 13 -9 27 -31 31 -49 4 -18 8 -35 9 -38 1 -3 5 -11
10 -18 11 -18 -10 -40 -42 -44 l-27 -3 -3 -184 c-3 -202 6 -254 55 -311 21
-26 32 -30 76 -30 47 0 100 12 138 30 8 4 25 2 37 -4 l23 -12 -26 -24 c-55
-52 -84 -50 744 -50 662 0 773 2 797 15 38 20 103 20 110 0 5 -13 105 -15 815
-15 l809 0 0 31 c0 26 3 30 22 27 13 -2 29 -15 36 -30 l13 -27 1560 -1 1560 0
8 23 c5 12 7 25 4 29 -12 21 18 4 40 -22 l26 -30 305 0 c193 0 307 4 311 10 4
7 12 7 25 0 10 -6 93 -10 186 -10 147 0 168 2 180 18 13 16 13 16 14 -1 0 -16
9 -17 93 -15 104 3 113 12 54 52 -56 38 -111 44 -148 17 -26 -19 -33 -20 -47
-9 -50 39 -44 58 16 58 22 0 41 8 56 25 33 36 76 34 98 -5 19 -34 34 -37 66
-14 30 20 28 58 -3 78 -14 9 -25 23 -25 32 0 13 -77 15 -682 12 l-683 -3 -32
-23 -33 -23 -37 25 -38 26 -2521 0 c-2456 0 -2521 0 -2538 -19 -11 -12 -15
-27 -11 -44 6 -23 2 -28 -35 -46 -32 -15 -47 -18 -61 -10 -22 11 -39 4 -39
-16 0 -30 -90 -54 -111 -29 -12 15 -2 28 43 55 10 5 18 15 18 22 0 7 7 25 15
41 8 15 12 32 9 37 -3 5 -173 9 -388 9 -420 0 -445 3 -522 59 -96 71 -124 151
-124 357 0 125 -2 144 -20 166 -10 14 -16 29 -12 32 4 4 7 26 8 49 0 22 6 43
12 45 9 3 12 57 12 199 l0 195 -27 -6 c-21 -5 -31 -2 -40 14 -12 18 -10 20 15
26 15 3 33 7 40 10 14 4 18 199 3 208 -4 3 -26 -10 -47 -29 -33 -30 -41 -33
-53 -20 -12 12 -12 17 2 39 10 14 17 34 17 44 0 21 52 51 58 33 2 -6 10 -11
18 -11 12 0 14 83 14 558 0 620 0 621 65 707 41 53 42 61 13 71 -21 6 -21 7
-4 20 18 13 19 46 1 87 -5 13 -2 17 14 17 12 0 21 5 21 10 0 6 11 3 24 -5 21
-14 70 -15 83 -1 11 10 23 90 17 109 -5 17 -3 19 19 13 14 -3 37 -2 51 4 21 8
25 15 23 42 l-3 33 -204 2 c-144 1 -213 -2 -232 -11z m200 -55 c2 -23 10 -35
28 -42 31 -11 26 -35 -5 -31 -28 4 -51 -14 -51 -40 0 -18 -5 -19 -49 -13 -45
6 -50 5 -56 -15 -7 -23 18 -60 42 -60 7 0 13 -4 13 -9 0 -13 -34 -24 -38 -12
-5 15 -27 14 -41 -3 -6 -7 -21 -13 -34 -13 -20 0 -23 5 -25 52 -2 31 2 56 8
60 6 4 8 15 5 26 -4 11 -2 19 4 19 6 0 11 9 11 19 0 16 10 21 55 26 30 4 55
11 55 15 0 4 9 19 20 33 27 34 54 29 58 -12z m129 -7 c-3 -3 -12 -4 -19 -1 -8
3 -5 6 6 6 11 1 17 -2 13 -5z m-376 -1044 c29 0 94 -55 83 -71 -10 -17 -53 -9
-64 11 -6 11 -17 20 -24 20 -17 0 -58 45 -49 53 4 4 11 3 17 -3 5 -5 22 -10
37 -10z m30 -270 c-23 -19 -41 -19 -41 1 0 6 4 8 8 5 4 -2 14 -1 22 5 27 16
35 9 11 -11z m-23 -279 c3 -15 -4 -29 -20 -39 -31 -22 -32 -22 -33 13 0 50 46
73 53 26z m92 -231 c0 -5 -7 -10 -15 -10 -7 0 -18 -8 -24 -17 -14 -25 -25 -9
-11 16 11 21 50 30 50 11z m-126 -44 c-10 -8 -21 -12 -24 -10 -5 6 21 24 34
24 6 0 1 -6 -10 -14z m0 -201 c-4 -8 -10 -12 -15 -9 -11 6 -2 24 11 24 5 0 7
-7 4 -15z m115 -254 c-14 -19 -27 -27 -40 -24 -25 7 -24 21 2 49 17 18 26 21
40 13 18 -9 18 -11 -2 -38z m6568 -722 c6 -6 9 -18 6 -27 -4 -8 0 -20 8 -26 8
-6 15 -21 16 -33 2 -20 -2 -23 -37 -23 -35 0 -42 4 -51 28 -8 21 -7 34 7 60
18 34 32 40 51 21z m-4567 -74 c7 -19 6 -30 -7 -45 -20 -22 -33 -18 -26 9 3
13 -2 21 -17 26 -29 9 -70 -13 -70 -37 0 -12 -7 -18 -22 -18 -14 0 -18 3 -12
8 6 4 19 21 28 39 13 26 23 33 53 36 21 2 44 4 51 5 7 1 17 -9 22 -23z m2830
21 c0 -3 -4 -8 -10 -11 -5 -3 -10 -1 -10 4 0 6 5 11 10 11 6 0 10 -2 10 -4z
m2216 -78 c-8 -38 -9 -40 -28 -33 -8 3 -15 19 -15 35 0 25 4 30 25 30 22 0 24
-3 18 -32z m-3160 -5 c-7 -7 -26 7 -26 19 0 6 6 6 15 -2 9 -7 13 -15 11 -17z
m-2471 -26 c12 -3 8 -5 -10 -4 -21 1 -31 8 -33 22 -3 18 -2 18 10 4 8 -9 22
-19 33 -22z"/>
<path d="M234 3209 c-9 -15 16 -59 33 -59 20 0 26 25 13 49 -12 23 -35 28 -46
10z"/>
<path d="M712 3306 c4 -18 0 -26 -13 -29 -15 -4 -18 -11 -12 -37 l6 -32 -42 7
c-49 8 -81 -12 -81 -51 0 -34 -90 -84 -135 -77 -39 6 -58 -18 -44 -54 10 -28
24 -29 75 -5 36 16 102 17 826 20 l787 3 18 29 c13 23 24 30 50 30 35 0 51
-16 34 -33 -6 -6 -11 -15 -11 -19 0 -4 223 -8 495 -8 466 0 495 1 504 18 6 11
6 24 1 32 -5 8 -5 19 0 25 5 6 10 28 12 50 l3 40 67 -4 c57 -2 72 0 94 18 26
20 28 20 46 4 10 -9 16 -23 13 -31 -3 -7 0 -23 6 -35 l11 -22 -20 22 c-17 17
-27 20 -49 13 -15 -5 -41 -12 -58 -17 -27 -8 -30 -13 -28 -46 2 -27 -2 -37
-12 -37 -8 0 -15 -7 -15 -15 0 -13 98 -15 825 -15 779 0 825 1 826 18 1 9 1
20 0 25 0 4 15 7 34 7 20 0 50 8 68 17 37 20 76 18 93 -5 10 -14 16 -14 39 -4
33 15 46 7 20 -12 -17 -12 -17 -16 -6 -30 13 -15 57 -16 500 -12 267 3 493 5
501 4 8 0 656 -2 1439 -4 989 -3 1428 -1 1437 6 8 8 14 8 19 0 15 -25 65 1 65
35 0 8 -6 18 -14 21 -8 3 -16 18 -19 33 -6 29 -70 77 -88 66 -5 -4 -9 3 -9 14
0 47 84 52 96 6 5 -20 12 -24 40 -23 19 1 39 -3 44 -8 11 -11 -5 -79 -26 -109
-32 -45 -43 -44 496 -45 473 0 510 1 510 17 0 16 1 16 13 0 11 -16 34 -17 237
-15 201 3 225 5 222 19 -1 9 5 22 13 29 13 10 18 8 35 -12 26 -33 78 -44 96
-21 13 17 13 17 14 1 0 -17 27 -18 421 -18 380 0 421 2 415 16 -3 9 -6 22 -6
31 0 8 -14 28 -31 44 -35 32 -32 44 10 52 17 4 31 14 33 24 7 33 30 -24 30
-74 0 -28 5 -46 13 -50 8 -2 17 -13 20 -24 6 -18 20 -19 309 -19 279 0 307 -2
363 -21 77 -26 141 -81 179 -154 30 -57 33 -59 97 -70 38 -6 54 -35 19 -35
-11 0 -29 -9 -42 -20 -13 -11 -27 -20 -32 -20 -4 0 -8 -38 -8 -85 0 -99 12
-109 54 -45 14 22 33 40 41 40 8 0 15 6 15 14 0 19 20 25 48 15 33 -12 27 -23
-20 -39 -38 -13 -43 -19 -43 -45 0 -29 -2 -30 -47 -33 l-48 -3 0 -354 0 -355
23 -4 c12 -3 39 -8 59 -11 20 -3 46 -13 58 -23 20 -16 20 -18 5 -49 -10 -19
-24 -33 -35 -33 -9 0 -23 -7 -30 -15 -9 -11 -17 -12 -30 -5 -38 21 -50 13 -50
-34 0 -36 4 -46 20 -51 11 -3 20 -14 20 -23 0 -9 3 -28 7 -41 5 -21 4 -22 -14
-12 -11 5 -23 7 -27 4 -3 -3 -6 -97 -6 -208 0 -205 3 -225 39 -225 21 0 101
-33 101 -42 0 -9 -80 -21 -111 -16 -24 3 -24 2 -27 -97 -2 -55 0 -110 3 -122
7 -28 35 -30 42 -3 6 23 23 27 23 5 0 -8 9 -20 20 -27 11 -7 20 -18 20 -25 0
-6 5 -13 12 -15 7 -3 5 -13 -7 -32 -19 -28 -29 -30 -95 -14 -13 2 -16 -18 -20
-122 -5 -111 -8 -131 -33 -182 -34 -69 -91 -121 -164 -148 -52 -19 -77 -20
-736 -20 -526 0 -686 -3 -695 -12 -10 -10 -17 -10 -32 0 -15 9 -144 12 -528
12 -280 0 -512 -3 -516 -7 -3 -4 -23 -13 -44 -20 -34 -11 -38 -11 -52 8 -15
19 -24 19 -310 15 -162 -2 -304 -5 -315 -5 -11 -1 -71 1 -133 5 -126 7 -153
-1 -113 -35 21 -18 21 -22 9 -48 -10 -21 -22 -29 -45 -31 -51 -5 -59 -25 -28
-67 15 -19 33 -35 40 -35 7 0 15 -7 19 -15 5 -13 35 -15 211 -14 203 1 205 1
205 22 1 20 1 21 11 4 7 -12 17 -16 30 -12 11 4 19 2 19 -4 0 -7 34 -11 95
-11 92 0 95 1 95 23 0 12 10 29 21 37 12 8 30 24 40 34 19 19 19 19 19 -22 0
-39 2 -42 28 -42 38 0 70 23 56 41 -6 8 -14 21 -17 30 -5 14 -2 15 21 7 18 -7
36 -28 52 -60 l24 -49 296 3 295 3 3 28 c3 21 -1 27 -16 27 -14 0 -21 8 -24
31 -7 45 11 79 43 79 34 0 80 -22 75 -37 -3 -6 -8 -27 -11 -47 -7 -33 -5 -36
28 -49 19 -8 38 -20 41 -26 4 -6 34 -10 66 -10 65 1 78 15 38 41 -12 8 -18 19
-14 26 12 21 22 13 39 -28 l15 -40 166 0 c142 0 166 2 166 15 0 23 27 29 46
10 9 -9 25 -14 35 -12 11 3 22 1 25 -4 8 -13 92 -11 100 2 4 7 -4 20 -17 30
-24 19 -24 19 51 19 72 0 76 -1 95 -30 20 -29 22 -30 106 -30 81 0 86 1 97 24
6 14 20 30 31 35 17 9 24 6 45 -16 25 -27 26 -27 55 -10 38 23 49 22 53 -5 l3
-23 417 -3 c402 -2 419 -1 473 19 74 28 134 75 165 129 l25 45 3 664 c2 435
-1 668 -7 674 -7 7 -17 5 -30 -7 -18 -16 -20 -16 -39 9 -19 23 -20 40 -5 68 3
4 19 -1 37 -13 18 -11 36 -17 39 -13 4 3 7 75 7 158 0 146 -1 153 -22 167
l-22 15 22 19 c12 10 22 24 22 31 0 21 -21 25 -40 8 -18 -16 -20 -16 -26 -2
-9 24 4 37 37 37 26 0 29 3 29 30 0 17 -9 39 -20 50 -25 25 -26 46 -1 53 18 4
20 14 20 107 0 98 -1 101 -22 98 -18 -2 -21 -8 -19 -36 3 -30 2 -32 -16 -21
-33 21 -42 44 -31 82 9 32 14 36 47 39 l37 3 3 345 c2 301 0 351 -14 390 -22
59 -72 111 -142 146 -46 23 -71 29 -148 32 -120 6 -148 -1 -142 -33 3 -14 0
-26 -8 -29 -8 -3 -14 -12 -14 -21 0 -8 -5 -15 -11 -15 -8 0 -9 12 -4 38 4 20
7 42 8 47 1 6 -68 11 -185 13 -165 2 -188 1 -188 -13 0 -30 30 -74 52 -77 32
-4 27 -21 -8 -32 -44 -14 -113 -47 -120 -57 -3 -5 -12 -9 -21 -9 -12 0 -13 3
-4 14 8 10 8 22 -3 47 -8 19 -12 50 -10 69 3 30 0 37 -23 48 -33 15 -243 17
-243 2 0 -5 -11 -10 -24 -10 -14 0 -38 -11 -54 -25 -35 -30 -47 -32 -31 -6 7
10 9 26 6 35 -6 14 -35 16 -267 16 -281 0 -297 -3 -338 -54 -17 -23 -23 -24
-55 -15 -25 7 -37 16 -39 32 -2 12 -10 22 -18 23 -8 0 -23 4 -32 8 -30 13 -63
3 -66 -21 -3 -21 -5 -22 -26 -8 -15 10 -45 15 -87 14 -35 -1 -79 2 -96 6 -29
6 -34 4 -42 -18 -7 -17 -6 -35 1 -55 17 -43 -1 -62 -50 -55 -20 3 -39 9 -42
13 -3 3 -12 9 -21 12 -18 7 -22 52 -8 79 20 38 8 39 -736 39 -684 0 -723 -1
-760 -19 -37 -18 -68 -18 -91 1 -6 4 -18 6 -27 2 -8 -3 -18 -1 -21 5 -9 14
-1742 15 -1751 1 -4 -6 1 -23 11 -38 11 -15 20 -47 21 -71 l2 -43 -32 6 c-18
4 -54 11 -82 15 -82 15 -88 19 -81 60 3 20 7 45 8 56 3 20 -3 20 -843 23
l-846 2 -11 -25 c-6 -14 -17 -26 -24 -26 -77 -9 -87 -6 -97 22 l-10 29 -443 0
-443 0 -17 -31 c-24 -40 -23 -75 2 -96 25 -22 26 -43 1 -36 -12 3 -24 -3 -34
-17 -14 -21 -15 -21 -44 -3 -16 10 -27 25 -26 33 2 9 -13 22 -37 33 -31 14
-40 24 -40 43 0 13 -4 24 -10 24 -5 0 -12 11 -16 25 -6 24 -9 25 -95 25 -73 0
-89 -3 -89 -15 0 -9 12 -18 30 -21 16 -4 30 -12 30 -19 0 -23 -29 -37 -62 -31
-27 5 -36 14 -50 46 l-17 40 -208 -2 c-192 -3 -208 -4 -205 -20 4 -23 -3 -23
-28 2 -19 19 -37 20 -1211 20 l-1191 0 4 -24z m9992 -41 c-4 -9 2 -18 15 -23
20 -7 20 -8 2 -19 -16 -10 -20 -9 -25 3 -4 10 -13 13 -26 9 -11 -4 -20 -2 -20
4 0 6 7 11 15 11 9 0 18 7 21 15 4 8 10 15 15 15 4 0 6 -7 3 -15z m-4346 -40
c-2 -1 -15 -5 -29 -8 -23 -6 -27 -3 -31 18 -7 35 0 38 34 14 16 -12 28 -22 26
-24z m-3674 3 c-4 -13 -7 -28 -7 -35 0 -18 -56 -25 -73 -9 -19 19 -18 26 4 26
11 0 29 9 42 20 30 26 43 25 34 -2z m866 -8 c0 -5 -4 -10 -10 -10 -5 0 -10 5
-10 10 0 6 5 10 10 10 6 0 10 -4 10 -10z m6554 -55 c15 -11 17 -18 8 -27 -13
-13 -42 6 -42 28 0 18 10 17 34 -1z m-9136 -14 l24 -6 -25 -23 c-21 -20 -28
-22 -47 -12 -12 6 -33 9 -47 5 -24 -6 -53 8 -53 26 0 16 103 23 148 10z m3902
-16 c0 -8 -2 -15 -4 -15 -2 0 -6 7 -10 15 -3 8 -1 15 4 15 6 0 10 -7 10 -15z
m838 -13 c3 -16 -2 -22 -17 -22 -26 0 -36 17 -20 36 16 19 33 13 37 -14z
m-2293 -12 c3 -5 15 -10 25 -10 10 0 22 -4 25 -10 8 -12 -54 -13 -74 -1 -7 5
-10 14 -7 20 9 14 23 14 31 1z m9227 -1080 c5 -32 4 -33 -29 -24 -25 7 -29 24
-11 42 20 20 36 13 40 -18z m45 -66 c-3 -3 -12 -4 -19 -1 -8 3 -5 6 6 6 11 1
17 -2 13 -5z m-4 -734 c-7 -25 -23 -36 -23 -16 0 9 -7 16 -16 16 -8 0 -12 5
-9 10 3 6 17 10 30 10 18 0 22 -4 18 -20z m-2203 -1040 c0 -5 -4 -10 -10 -10
-5 0 -10 5 -10 10 0 6 5 10 10 10 6 0 10 -4 10 -10z m-1242 -122 c-2 -6 -10
-14 -16 -16 -7 -2 -10 2 -6 12 7 18 28 22 22 4z"/>
<path d="M3893 3314 c-3 -9 1 -22 9 -30 13 -13 21 -13 56 -2 27 8 42 19 42 29
0 23 -98 26 -107 3z"/>
<path d="M6767 3324 c-11 -11 3 -24 24 -24 12 0 19 5 17 13 -5 14 -31 21 -41
11z"/>
<path d="M10314 3316 c-9 -24 5 -36 42 -36 31 0 35 3 32 23 -2 17 -11 23 -36
25 -22 2 -34 -2 -38 -12z"/>
<path d="M474 2986 c-45 -20 -112 -83 -134 -127 -27 -53 -37 -119 -19 -130 29
-18 99 -8 99 15 0 6 28 41 63 77 45 47 74 68 105 77 33 10 290 13 1150 13 681
0 1113 3 1122 9 12 8 13 13 3 29 -7 11 -10 27 -7 36 5 13 -40 15 -418 15 -316
0 -427 -3 -436 -12 -9 -9 -15 -9 -24 0 -9 9 -166 12 -646 12 l-634 0 6 -25 c4
-14 3 -25 -2 -25 -5 0 -14 11 -20 25 -11 24 -16 25 -94 25 -47 -1 -97 -7 -114
-14z m166 -2 c0 -8 -19 -13 -24 -6 -3 5 1 9 9 9 8 0 15 -2 15 -3z"/>
<path d="M2890 2974 c-13 -32 -13 -30 6 -48 24 -24 129 -22 151 3 9 11 22 17
29 14 7 -2 25 4 40 14 16 10 37 18 49 18 11 0 22 5 25 10 3 6 -48 11 -143 12
l-148 3 -9 -26z"/>
<path d="M3230 2992 c0 -5 3 -12 7 -16 4 -4 7 -19 8 -34 l0 -27 735 -2 c425 0
742 3 752 8 11 6 19 5 23 -1 7 -11 1156 -14 1228 -3 24 4 37 11 37 21 0 8 7
20 17 27 41 30 4 35 -273 35 -237 0 -274 -2 -274 -15 0 -20 -75 -20 -114 0
-24 13 -63 15 -198 14 -107 -2 -168 -6 -168 -13 0 -6 -5 -5 -12 2 -17 17 -45
15 -56 -5 -9 -16 -11 -16 -27 0 -15 16 -83 17 -851 17 -459 0 -834 -4 -834 -8z
m1797 -58 c-3 -3 -12 -4 -19 -1 -8 3 -5 6 6 6 11 1 17 -2 13 -5z"/>
<path d="M6240 2990 c0 -6 7 -13 15 -17 9 -3 22 -18 31 -34 l14 -29 559 1
c308 1 565 6 573 10 10 7 3 17 -27 44 l-40 34 -562 1 c-380 0 -563 -3 -563
-10z"/>
<path d="M7463 2965 c2 -20 8 -40 14 -46 14 -14 53 -2 53 17 0 22 57 17 88 -7
26 -20 36 -20 439 -18 317 2 418 5 431 15 14 10 15 15 5 25 -7 7 -13 21 -13
31 0 17 -26 18 -510 18 l-511 0 4 -35z"/>
<path d="M8644 2973 c-14 -53 0 -58 147 -58 117 0 134 3 137 17 2 12 -5 17
-30 20 -25 2 -34 8 -36 26 -3 21 -7 22 -108 22 l-104 0 -6 -27z"/>
<path d="M9067 2979 c-3 -11 -15 -23 -27 -26 -12 -3 -20 -12 -18 -22 3 -14 31
-16 236 -19 172 -2 238 1 255 10 12 7 33 13 46 13 26 0 47 25 39 47 -5 12 -50
14 -266 16 -255 2 -260 2 -265 -19z"/>
<path d="M9765 2991 c-3 -5 0 -16 7 -23 7 -8 18 -23 24 -33 11 -19 27 -20 616
-22 332 -1 610 2 617 7 18 10 5 30 -20 30 -11 0 -24 11 -31 25 l-12 26 -410
-1 c-405 -1 -411 -2 -427 -22 l-17 -21 -6 21 c-7 21 -12 22 -171 22 -90 0
-166 -4 -170 -9z"/>
<path d="M11015 2990 c-8 -14 20 -23 50 -18 15 3 30 -1 37 -10 18 -21 94 -52
129 -52 33 0 48 22 29 45 -10 12 -9 15 4 15 9 0 16 7 16 15 0 13 -21 15 -129
15 -77 0 -132 -4 -136 -10z"/>
<path d="M11300 2986 c0 -8 7 -16 15 -20 9 -3 12 -12 8 -22 -9 -24 9 -30 106
-33 72 -2 92 1 106 15 15 16 19 16 51 0 28 -13 69 -16 225 -16 108 0 198 4
209 10 13 7 21 7 25 0 3 -5 25 -10 48 -10 55 0 138 -23 180 -49 18 -11 42 -21
52 -21 11 -1 34 -2 52 -2 30 -1 33 -4 39 -45 8 -56 21 -63 52 -28 30 35 25 67
-18 130 -32 47 -102 95 -138 95 -17 0 -22 -6 -22 -24 0 -14 5 -28 10 -31 6 -3
10 -12 10 -18 0 -7 -5 -4 -11 6 -5 9 -16 17 -24 17 -8 0 -24 14 -37 30 l-22
30 -306 0 c-207 0 -310 -4 -317 -11 -8 -8 -13 -8 -17 0 -5 7 -56 11 -142 11
-108 0 -134 -3 -134 -14z m737 -38 c-3 -8 -6 -5 -6 6 -1 11 2 17 5 13 3 -3 4
-12 1 -19z"/>
<path d="M12443 2723 l-23 -4 0 -460 c0 -401 2 -459 15 -459 17 0 20 -16 5
-25 -6 -4 -8 -15 -5 -25 3 -10 1 -21 -5 -25 -6 -4 -10 -100 -10 -275 l0 -269
33 -9 c17 -5 35 -7 39 -5 4 2 8 259 8 570 l0 565 -27 21 -27 21 25 6 24 6 0
184 c0 199 1 194 -52 183z"/>
<path d="M317 2663 c-4 -3 -7 -35 -7 -70 0 -50 4 -67 20 -80 19 -17 19 -17 -1
-31 -15 -10 -19 -23 -17 -50 3 -36 4 -37 40 -36 64 2 69 13 66 133 l-3 106
-32 -1 c-24 -1 -34 3 -38 17 -7 20 -17 24 -28 12z"/>
<path d="M338 2342 c-27 -3 -28 -5 -28 -72 0 -76 9 -89 46 -69 21 11 64 85 64
110 0 15 -54 35 -82 31z"/>
<path d="M3000 2272 c-128 -34 -207 -100 -237 -200 -24 -83 -23 -260 4 -327
11 -27 25 -49 31 -47 7 1 12 -9 12 -22 0 -35 63 -87 221 -181 234 -141 249
-158 249 -296 0 -86 -22 -119 -80 -119 -21 0 -41 4 -45 9 -3 5 -20 7 -38 4
-38 -6 -63 12 -73 53 -7 28 24 70 64 85 21 8 23 14 20 71 l-3 63 -184 3 -183
2 5 -132 c5 -155 21 -210 76 -269 40 -41 138 -92 209 -108 40 -8 42 -8 37 10
-5 13 -2 19 10 19 9 0 19 -9 22 -19 7 -27 85 -36 191 -21 178 24 297 94 333
197 10 25 14 87 14 188 0 245 -28 294 -254 440 -71 46 -87 53 -75 34 3 -6 1
-14 -5 -18 -8 -6 -8 -16 0 -40 13 -37 6 -50 -19 -35 -13 9 -20 7 -29 -5 -11
-14 -12 -13 -13 7 0 12 -5 22 -11 22 -8 0 -10 -14 -6 -45 7 -49 1 -54 -34 -26
-22 18 -22 19 -6 44 9 14 15 32 13 39 -3 7 -7 26 -11 43 -6 28 -6 29 13 12 18
-16 20 -16 35 1 25 28 21 39 -26 66 -23 14 -56 39 -72 56 -28 29 -30 37 -30
108 0 42 4 86 9 97 9 19 9 19 -11 3 -24 -22 -33 -22 -58 -4 -18 13 -17 14 6
38 13 14 36 33 52 43 25 16 27 16 27 1 0 -9 11 -21 24 -26 13 -5 27 -14 31
-19 3 -6 23 -11 43 -11 20 -1 48 -7 62 -15 l25 -14 -38 -16 -38 -16 3 -77 3
-77 180 0 180 1 -1 100 c-2 167 -35 230 -153 289 -90 45 -251 71 -251 41 0
-18 -6 -22 -47 -31 -29 -6 -34 -3 -44 19 -14 31 -36 32 -129 8z m59 -34 c10
-26 -3 -48 -28 -48 -9 0 -25 -7 -35 -15 -20 -15 -56 -20 -56 -9 0 4 7 12 15
18 8 6 16 22 18 36 2 14 11 25 20 25 8 0 19 4 23 8 14 14 35 7 43 -15z m-54
-208 c-3 -5 -12 -10 -18 -10 -7 0 -6 4 3 10 19 12 23 12 15 0z m331 -32 c32
-14 49 -66 18 -54 -8 3 -19 6 -24 6 -4 0 -10 8 -14 18 -3 9 -9 23 -12 30 -3 6
-4 12 -1 12 3 0 18 -6 33 -12z m-396 -288 c0 -11 77 -43 89 -36 6 4 9 -4 8
-22 -1 -18 -7 -29 -17 -28 -8 1 -15 -6 -15 -14 0 -27 -34 -23 -41 4 -4 17 -15
28 -33 32 -30 8 -61 32 -61 49 0 7 10 17 23 22 22 10 47 7 47 -7z m-72 -67
c14 -12 13 -13 -6 -13 -19 0 -22 5 -21 38 1 26 3 30 6 12 2 -14 12 -31 21 -37z
m479 -616 c4 -7 0 -8 -11 -4 -10 4 -22 7 -27 7 -5 0 -9 4 -9 9 0 12 38 2 47
-12z m-53 -26 c3 -5 -2 -15 -11 -22 -12 -10 -14 -10 -9 -1 9 15 -6 16 -22 0
-6 -6 -14 -9 -18 -6 -3 4 7 13 23 22 34 18 31 18 37 7z m83 -17 c-9 -9 -28 6
-21 18 4 6 10 6 17 -1 6 -6 8 -13 4 -17z"/>
<path d="M1167 2253 c-16 -4 -18 -11 -12 -49 4 -29 3 -44 -5 -44 -7 0 -10 -29
-8 -87 2 -68 6 -87 17 -85 7 1 22 0 32 -3 17 -6 18 -9 5 -27 -8 -11 -12 -27
-9 -34 7 -19 23 -7 23 18 0 17 2 19 16 8 31 -27 61 -114 42 -126 -5 -3 -4 -11
2 -19 15 -19 4 -52 -21 -60 -32 -11 -57 4 -75 46 -10 21 -21 39 -25 39 -5 0
-8 -147 -8 -327 0 -181 -3 -336 -7 -346 -9 -26 -57 -47 -104 -47 l-41 0 3
-117 3 -118 115 -3 c143 -4 270 11 325 38 25 12 55 38 71 62 l29 41 5 584 c5
529 4 582 -11 578 -11 -4 -15 1 -14 17 1 12 7 24 13 26 7 2 12 12 12 23 0 18
-9 19 -177 18 -98 -1 -186 -3 -196 -6z m323 -113 c0 -11 -7 -20 -15 -20 -15 0
-21 21 -8 33 12 13 23 7 23 -13z m5 -80 c3 -11 4 -29 0 -40 -3 -10 -1 -29 6
-41 9 -19 9 -21 -4 -16 -16 6 -51 -25 -40 -36 3 -4 -3 -16 -15 -27 -12 -12
-22 -29 -22 -38 0 -12 -7 -17 -24 -17 -26 2 -79 39 -68 49 3 4 1 11 -6 15 -20
12 17 84 40 78 9 -3 22 1 29 9 6 8 22 14 35 14 17 0 24 6 24 19 0 48 32 71 45
31z m-97 -302 c15 -36 -2 -38 -32 -5 -17 18 -20 28 -12 40 12 19 25 9 44 -35z
m47 12 c-5 -8 -11 -8 -17 -2 -6 6 -7 16 -3 22 5 8 11 8 17 2 6 -6 7 -16 3 -22z
m-62 -314 c3 3 17 -2 31 -11 28 -19 35 -45 12 -45 -8 0 -21 -9 -28 -19 -12
-17 -19 -18 -60 -10 -48 11 -85 38 -60 46 6 3 12 11 12 18 0 18 51 35 71 24 9
-5 19 -6 22 -3z m-191 -23 c21 -19 24 -66 4 -82 -18 -15 -22 -8 -31 52 -8 50
-2 57 27 30z m237 -147 c14 -17 -7 -24 -52 -18 -22 4 -25 7 -16 18 15 18 53
18 68 0z m-187 -218 c0 -7 2 -19 2 -26 1 -7 8 -17 16 -23 13 -8 13 -11 -3 -24
-23 -17 -36 -12 -60 20 -15 20 -15 28 -5 45 14 22 47 27 50 8z m86 -83 c-3 -3
-9 2 -12 12 -6 14 -5 15 5 6 7 -7 10 -15 7 -18z m12 -31 c0 -8 -5 -12 -10 -9
-6 4 -8 11 -5 16 9 14 15 11 15 -7z"/>
<path d="M1702 1688 c3 -567 3 -573 25 -621 26 -55 51 -90 87 -118 l25 -20 31
23 c25 18 33 20 39 9 7 -11 9 -11 13 0 3 10 10 9 28 -4 14 -9 33 -17 43 -17
15 0 18 -5 13 -23 -10 -42 23 -64 106 -71 181 -16 344 37 432 141 55 65 67
112 73 279 5 114 3 154 -6 154 -7 0 -9 -9 -6 -23 4 -15 1 -28 -9 -36 -12 -10
-20 -7 -45 20 -39 41 -41 74 -4 86 22 8 27 15 27 44 1 27 5 35 24 37 l22 3 0
286 c0 241 -2 284 -14 280 -8 -3 -21 2 -30 12 -20 22 -21 32 -2 25 11 -4 14 2
11 23 -4 36 3 47 21 32 11 -9 14 -8 14 4 0 47 -1 47 -206 47 l-194 0 0 -440
c0 -286 4 -439 10 -435 6 3 10 12 10 20 0 23 16 26 53 10 30 -12 34 -18 29
-41 -3 -15 -13 -29 -23 -31 -23 -6 -24 -16 -4 -33 17 -14 20 -40 4 -40 -5 0
-8 -4 -4 -9 3 -6 -3 -15 -14 -20 -20 -11 -30 -4 -46 34 -6 14 -11 -9 -16 -74
-5 -51 -14 -99 -20 -107 -18 -22 -66 -17 -83 8 -13 18 -16 53 -16 174 0 130
-2 153 -16 158 -25 10 -34 -2 -23 -31 10 -27 4 -63 -11 -63 -5 0 -10 10 -12
23 -2 12 -9 21 -15 20 -6 -1 -9 6 -6 17 3 11 10 20 15 20 5 0 6 5 3 11 -4 5 1
19 11 30 16 18 18 18 36 3 17 -17 18 -4 18 389 l0 407 -200 0 -201 0 3 -572z
m96 444 c-9 -11 -14 -11 -26 2 -20 20 -7 39 18 24 14 -9 16 -15 8 -26z m118
-69 c-11 -11 -19 6 -11 24 8 17 8 17 12 0 3 -10 2 -21 -1 -24z m94 8 c0 -4 -9
-16 -21 -27 -15 -14 -24 -16 -37 -8 -22 14 -30 56 -9 48 8 -3 18 -1 22 5 7 12
45 -3 45 -18z m-140 -63 c0 -13 -23 -5 -28 10 -2 7 2 10 12 6 9 -3 16 -11 16
-16z m-74 -113 c4 -8 1 -22 -6 -30 -7 -8 -9 -15 -4 -16 5 0 -2 -5 -15 -10 -25
-10 -61 -4 -61 11 0 13 53 60 68 60 7 0 15 -7 18 -15z m224 -294 c7 -14 7 -22
0 -26 -6 -4 -8 -15 -5 -25 5 -14 1 -16 -20 -12 -17 3 -24 9 -21 18 3 8 -1 14
-10 14 -9 0 -14 -7 -12 -18 4 -22 -18 -52 -38 -52 -19 0 -36 -34 -22 -48 6 -6
16 -8 23 -5 14 5 15 -13 3 -33 -7 -11 -67 -7 -69 5 0 3 -2 17 -4 31 -2 14 -1
40 2 59 5 28 7 31 16 16 7 -14 11 -15 18 -4 5 8 3 17 -4 22 -9 6 -8 7 3 6 32
-3 40 2 54 36 12 29 20 35 45 35 20 0 34 -7 41 -19z m307 -33 c-3 -8 -6 -5 -6
6 -1 11 2 17 5 13 3 -3 4 -12 1 -19z m-537 -128 c-19 -13 -30 -13 -30 0 0 6
10 10 23 10 18 0 19 -2 7 -10z"/>
<path d="M3720 2125 l0 -135 120 0 120 0 1 -287 c0 -159 2 -409 2 -558 l2
-270 198 -3 197 -2 0 170 c0 166 -1 170 -19 160 -13 -7 -28 -7 -45 0 -46 17
-28 54 32 66 l32 6 2 357 3 356 118 3 117 3 0 134 0 135 -440 0 -440 0 0 -135z
m580 20 c9 -11 10 -19 3 -26 -13 -13 -68 35 -58 51 7 12 34 0 55 -25z m-220
-529 c0 -7 14 -27 30 -44 17 -18 30 -28 30 -24 0 14 43 7 48 -8 3 -9 -1 -11
-12 -7 -18 7 -66 -11 -66 -25 0 -4 -4 -8 -9 -8 -6 0 -13 20 -16 45 -4 24 -13
50 -21 56 -8 6 -11 15 -8 20 8 14 24 11 24 -5z m53 -173 c-7 -2 -13 -18 -13
-34 0 -44 -24 -74 -61 -77 -21 -2 -29 1 -27 10 3 7 -2 18 -11 25 -14 11 -13
12 7 13 12 0 22 6 22 14 0 21 27 40 34 24 4 -9 10 -6 22 10 9 12 22 22 28 21
7 0 6 -2 -1 -6z m95 -203 c12 0 22 -6 22 -14 0 -8 -10 -16 -22 -18 -15 -2 -24
-11 -26 -25 -3 -22 -32 -33 -32 -13 0 22 -2 25 -21 32 -19 7 -19 8 -2 27 11
12 26 18 38 16 11 -3 30 -5 43 -5z m-108 -9 c0 -6 -4 -13 -10 -16 -5 -3 -10 1
-10 9 0 9 5 16 10 16 6 0 10 -4 10 -9z m201 -73 c24 -30 24 -39 -3 -35 -21 4
-40 34 -31 50 7 11 14 8 34 -15z"/>
<path d="M5090 2221 c0 -22 -6 -44 -15 -51 -8 -7 -15 -9 -15 -4 0 5 -5 2 -10
-6 -5 -8 -10 -74 -10 -146 0 -119 2 -132 18 -130 12 1 16 -5 15 -22 -2 -13 1
-21 7 -17 6 4 10 -5 10 -19 0 -21 -5 -26 -25 -26 l-26 0 2 -330 1 -329 24 -26
c15 -16 24 -38 24 -58 0 -24 -3 -28 -10 -17 -8 13 -10 12 -11 -5 -1 -11 -1
-26 0 -32 1 -8 -5 -10 -14 -7 -14 6 -16 -2 -13 -57 l3 -64 173 -2 172 -1 1
441 c0 257 4 434 9 422 5 -11 18 -78 29 -150 11 -71 39 -242 61 -380 22 -137
43 -266 46 -287 7 -45 16 -48 150 -48 l101 0 7 37 c32 188 46 298 37 301 -6 2
-11 10 -11 18 0 8 6 11 15 8 11 -5 15 1 15 22 0 16 9 82 20 148 11 65 17 123
14 127 -7 11 -46 -9 -58 -30 -7 -12 -15 1 -32 54 -14 43 -19 74 -14 79 6 6 14
-2 21 -22 8 -22 20 -34 45 -42 20 -7 38 -9 42 -5 4 3 14 50 23 103 l16 97 3
-245 c4 -296 2 -269 23 -281 22 -13 22 -25 -2 -32 -18 -4 -19 -15 -19 -153 1
-82 3 -157 6 -166 4 -16 21 -17 173 -17 l169 1 0 44 c0 23 -4 46 -10 49 -5 3
-10 0 -10 -8 0 -22 -37 -9 -43 14 -3 10 -13 19 -22 19 -9 0 -13 5 -9 11 3 6 1
15 -6 19 -7 4 -9 13 -6 19 9 14 53 15 61 1 3 -5 15 -10 25 -10 18 0 18 23 19
615 l1 615 -259 0 -258 0 -6 -27 c-3 -16 -22 -149 -42 -298 -37 -272 -42 -301
-49 -294 -3 2 -21 112 -41 244 -29 189 -41 243 -55 256 -13 11 -15 20 -9 26 6
6 9 28 7 49 l-3 39 -237 3 -238 2 0 -39z m928 -90 c2 -11 -1 -21 -6 -21 -14 0
-53 50 -46 61 9 15 48 -14 52 -40z m-864 4 c-9 -14 -20 -25 -25 -25 -13 0 -11
8 9 29 25 28 35 25 16 -4z m218 -46 c21 -45 44 -65 61 -52 6 5 25 15 41 22 29
12 29 12 14 -11 -24 -36 -99 -77 -124 -67 -12 4 -26 3 -31 -2 -6 -6 -10 -3
-10 8 1 68 -3 85 -17 74 -11 -9 -15 -7 -19 9 -3 11 -1 20 3 20 4 0 6 9 3 21
-5 18 -2 20 28 17 28 -2 37 -10 51 -39z m-57 -148 c-3 -6 -11 -11 -17 -11 -6
0 -6 6 2 15 14 17 26 13 15 -4z m-218 -33 c-3 -7 -5 -2 -5 12 0 14 2 19 5 13
2 -7 2 -19 0 -25z m501 -39 c4 -33 -24 -60 -35 -33 -4 10 -2 19 5 22 9 3 9 9
1 24 -9 17 -8 19 8 16 11 -2 19 -13 21 -29z m-418 -184 c7 -9 22 -12 40 -9 30
7 43 -4 31 -25 -7 -10 -13 -11 -30 -1 -12 6 -34 10 -49 9 -77 -6 -104 7 -59
29 31 15 53 14 67 -3z m432 -29 c-4 -22 -61 -86 -77 -86 -7 0 -15 -9 -18 -20
-3 -11 -13 -20 -22 -20 -10 0 -14 5 -11 13 3 6 9 20 12 30 6 16 17 21 37 18 4
0 7 8 7 18 0 11 5 23 10 26 6 3 10 15 10 26 0 16 6 20 28 17 20 -2 26 -8 24
-22z m26 -176 c12 -16 22 -31 22 -34 0 -3 13 -19 28 -36 31 -34 53 -33 84 5
14 16 19 17 27 6 5 -7 14 -10 20 -6 9 5 9 11 -1 23 -11 13 -11 14 1 8 8 -5 16
-3 21 5 5 7 6 -7 3 -32 -8 -58 -27 -86 -64 -91 -23 -4 -34 1 -49 21 -18 25
-19 26 -52 10 -104 -50 -100 -50 -137 -14 -32 32 -33 35 -21 69 6 19 20 38 31
41 11 4 18 12 16 18 -3 10 27 36 44 37 3 0 15 -13 27 -30z m502 -199 c0 -12 9
-20 29 -24 25 -5 29 -10 28 -39 -1 -22 2 -32 11 -30 6 1 12 -3 12 -9 0 -15
-51 -6 -83 16 -24 16 -30 16 -39 4 -7 -10 -11 -11 -14 -2 -4 9 -11 9 -28 1
-17 -7 -30 -7 -45 1 -39 21 -22 53 34 67 16 4 36 13 43 21 20 20 52 16 52 -6z
m102 7 c-17 -17 -15 -28 4 -28 8 0 12 -4 9 -10 -9 -15 -35 -12 -41 5 -9 22 3
45 23 45 13 0 14 -3 5 -12z m-900 -34 c10 -20 9 -27 -2 -34 -18 -11 -20 -9
-25 29 -5 38 11 41 27 5z m696 -99 c28 -32 27 -35 0 -32 -22 2 -36 19 -37 45
-1 19 13 14 37 -13z m227 -245 c3 -5 2 -10 -4 -10 -5 0 -13 5 -16 10 -3 6 -2
10 4 10 5 0 13 -4 16 -10z"/>
<path d="M5601 1467 c-8 -11 -6 -18 9 -32 26 -24 34 -15 17 19 -12 21 -16 24
-26 13z"/>
<path d="M6555 2218 c-3 -24 -8 -59 -10 -78 -2 -19 -9 -60 -14 -90 -9 -57 -2
-80 26 -80 8 0 11 -4 8 -10 -12 -19 14 -10 40 14 25 24 26 26 11 55 -9 16 -26
37 -38 45 -16 12 -19 18 -10 29 7 8 8 17 4 21 -4 4 6 4 22 0 19 -4 31 -2 36 7
6 9 14 10 30 3 17 -7 23 -20 26 -52 2 -25 0 -42 -7 -42 -6 0 -8 -8 -4 -19 3
-12 0 -21 -10 -25 -16 -6 -20 -32 -6 -40 5 -4 22 4 38 17 37 32 53 24 53 -24
0 -44 -19 -52 -42 -18 l-13 21 -43 -22 c-34 -18 -41 -26 -36 -42 13 -42 -64
-74 -80 -32 -4 10 2 12 24 7 34 -6 36 1 14 45 -18 36 -21 37 -49 16 -16 -12
-17 -16 -6 -23 11 -7 11 -10 -1 -17 -10 -6 -29 -116 -67 -374 -29 -201 -56
-380 -59 -397 -4 -30 -2 -33 20 -33 28 0 48 -17 48 -42 0 -11 7 -18 18 -18 10
0 23 -5 30 -12 9 -9 15 -9 24 0 7 7 16 12 20 12 33 0 -44 -95 -85 -106 -19 -4
-27 -12 -25 -23 3 -14 25 -16 165 -18 182 -3 173 -7 173 83 0 39 -3 43 -40 62
-24 12 -43 16 -46 10 -4 -6 -14 7 -24 28 -12 26 -14 43 -7 51 5 7 7 20 3 28
-5 14 5 19 59 27 12 2 20 12 21 23 2 36 6 40 13 15 4 -14 3 -31 -2 -38 -7 -9
-4 -18 8 -30 15 -14 33 -16 97 -13 43 2 78 2 79 0 1 -2 6 -58 13 -124 l11
-120 203 -3 c158 -2 202 0 202 10 0 7 -41 262 -92 566 l-91 553 -25 -26 c-21
-23 -30 -26 -61 -20 -20 4 -40 10 -45 15 -14 14 3 62 24 67 11 3 21 13 21 22
7 76 8 81 17 81 5 0 19 -10 32 -22 l23 -22 -6 25 c-3 13 -9 45 -12 72 -6 41
-10 47 -31 47 -13 0 -24 5 -24 10 0 6 -54 10 -142 9 -81 0 -134 -4 -123 -8 11
-5 26 -6 33 -4 8 4 12 -5 12 -24 0 -33 -35 -62 -53 -44 -8 8 -16 6 -29 -6 -10
-9 -18 -13 -18 -10 0 3 -12 -1 -27 -8 -37 -19 -48 -6 -48 56 l0 49 -36 0 c-19
0 -44 -7 -55 -15 -25 -19 -34 -19 -34 0 0 33 -19 12 -25 -27z m376 -149 c49
-24 46 -43 -7 -47 -21 -2 -42 -8 -45 -14 -10 -16 -44 7 -46 31 -1 13 4 21 13
21 8 0 17 7 20 15 8 20 17 19 65 -6z m39 -108 c0 -5 -11 -8 -25 -8 -13 0 -22
3 -19 8 3 5 14 9 25 9 10 0 19 -4 19 -9z m-81 -201 c13 -155 19 -190 31 -190
4 0 10 9 13 20 5 19 37 29 37 11 0 -5 3 -23 7 -41 3 -19 2 -31 -3 -28 -13 8
-54 -9 -54 -22 0 -6 5 -8 10 -5 6 3 10 1 10 -4 0 -6 -4 -11 -10 -11 -5 0 -10
-11 -10 -25 0 -28 5 -30 40 -10 22 12 27 11 43 -2 22 -21 22 -33 -2 -33 -11 0
-23 -5 -27 -11 -3 -6 -15 -9 -25 -6 -14 4 -19 0 -19 -14 0 -17 -8 -19 -70 -19
l-70 0 6 58 c4 31 17 131 29 222 12 91 21 166 20 168 -2 2 -12 -2 -22 -9 -19
-11 -93 -6 -93 7 0 16 47 70 57 67 7 -3 16 2 19 11 5 14 8 14 30 -1 23 -15 24
-15 24 13 1 21 3 25 9 14 4 -8 13 -80 20 -160z m-166 88 c2 -7 1 -21 -2 -31
-6 -17 -8 -17 -20 -3 -14 16 -9 46 8 46 5 0 11 -6 14 -12z m272 -68 c3 -5 12
-7 20 -3 20 7 45 -14 45 -38 0 -24 -18 -33 -35 -19 -13 10 -15 8 -15 -14 0
-23 -3 -26 -20 -21 -15 5 -18 3 -14 -9 3 -9 1 -16 -5 -16 -6 0 -11 5 -11 10 0
6 -12 22 -26 35 -30 27 -26 54 8 71 30 15 45 16 53 4z m118 -197 c12 -33 14
-50 7 -57 -8 -8 -15 -5 -23 9 -19 32 -36 83 -30 89 16 15 30 2 46 -41z m-60
-106 c-2 -4 -15 -5 -29 -2 -13 3 -35 7 -49 10 -35 8 -31 23 8 27 32 3 79 -20
70 -35z m-453 -101 c0 -11 -19 -15 -25 -6 -3 5 1 10 9 10 9 0 16 -2 16 -4z
m83 -99 c-3 -4 -11 -3 -18 3 -8 7 -18 9 -24 6 -5 -3 -11 1 -14 8 -3 8 -18 16
-34 18 l-28 4 35 10 c31 10 38 8 61 -15 14 -14 24 -30 22 -34z m58 43 c10 -6
19 -17 19 -25 0 -14 -29 -35 -49 -35 -6 0 -11 16 -11 35 0 37 9 42 41 25z
m-133 -64 c-10 -7 -18 -18 -18 -25 0 -6 -4 -11 -10 -11 -5 0 -10 3 -10 7 0 11
33 43 44 43 6 0 3 -7 -6 -14z m32 -178 c0 -5 -7 -8 -15 -8 -10 0 -15 10 -15
27 0 26 1 26 15 7 8 -10 15 -22 15 -26z m573 36 c9 -10 -4 -34 -19 -34 -8 0
-34 -18 -57 -40 -39 -38 -42 -39 -51 -21 -12 27 -4 44 30 61 16 8 33 21 37 27
8 13 49 18 60 7z"/>
<path d="M6790 1854 c0 -8 5 -12 10 -9 6 3 10 10 10 16 0 5 -4 9 -10 9 -5 0
-10 -7 -10 -16z"/>
<path d="M7450 2106 c0 -132 2 -156 15 -156 8 0 15 5 15 11 0 5 5 7 12 3 7 -5
9 0 6 14 -8 28 18 37 49 17 28 -18 22 -35 -12 -35 -13 0 -27 -5 -30 -10 -4 -6
-11 -8 -16 -5 -5 4 -9 -1 -9 -9 0 -9 7 -16 15 -16 18 0 20 -31 3 -48 -9 -9 -9
-12 0 -12 7 0 12 5 12 10 0 26 31 5 59 -40 17 -27 35 -50 41 -50 5 0 17 -17
26 -37 9 -21 18 -32 21 -25 10 27 23 10 23 -30 0 -58 -13 -77 -40 -60 -11 6
-26 12 -34 12 -20 0 -46 39 -39 57 4 9 0 13 -8 12 -17 -4 -71 30 -64 41 3 4
-2 13 -10 20 -8 7 -15 21 -15 31 0 10 -5 21 -10 24 -8 5 -10 -493 -2 -720 0
-5 -2 -61 -5 -123 l-4 -112 198 2 198 3 3 313 2 312 28 0 c15 0 41 4 59 9 24
7 33 6 37 -5 3 -8 -1 -14 -10 -14 -12 0 -14 -5 -9 -17 5 -10 10 -64 13 -119
l4 -101 40 10 c56 14 64 -1 27 -51 -17 -23 -35 -42 -40 -42 -4 0 -6 -7 -3 -15
4 -8 10 -13 14 -10 9 6 24 -24 21 -42 -1 -7 3 -13 9 -13 5 0 10 -7 10 -15 0
-9 6 -12 16 -8 14 5 15 1 9 -28 -4 -19 -10 -38 -13 -44 -4 -5 -5 -20 -3 -32 3
-27 -14 -30 -28 -6 -8 15 -11 15 -26 3 -16 -14 -17 -12 -10 19 5 26 4 32 -6
29 -10 -3 -14 -24 -14 -69 l0 -64 183 -3 c169 -2 182 -1 182 15 0 10 -7 27
-15 37 -21 27 -20 60 1 52 14 -5 15 1 11 41 -2 27 -7 63 -10 81 -3 17 -2 32 3
32 16 0 12 295 -4 333 -21 48 -75 94 -136 116 -54 18 -54 19 -25 26 151 34
181 87 173 308 -4 99 -9 132 -27 174 -27 62 -46 82 -63 65 -9 -9 -17 -7 -31 6
-10 9 -22 15 -26 13 -3 -3 -8 8 -11 25 -9 52 -44 57 -407 62 l-323 4 0 -156z
m620 -67 c0 -11 -2 -19 -5 -19 -4 0 -33 15 -54 28 -3 1 4 9 15 16 22 17 44 4
44 -25z m-159 -19 c23 -6 40 -19 47 -36 18 -37 15 -199 -3 -234 -16 -30 -8
-44 19 -34 9 3 16 4 16 1 0 -17 -24 -55 -40 -65 -17 -10 -22 -7 -41 28 -13 22
-30 40 -40 40 -10 0 -19 11 -23 25 -6 23 -26 36 -26 17 0 -4 -23 -20 -51 -35
l-50 -28 -12 31 c-6 16 -18 30 -26 30 -11 0 -9 5 6 19 17 16 27 18 58 11 26
-6 47 -4 71 6 l34 14 0 110 c0 120 -2 117 61 100z m29 -422 c0 -15 -9 -18 -50
-18 -27 0 -50 4 -50 8 0 18 24 29 61 28 30 0 39 -5 39 -18z m-316 -370 l6 -23
19 24 c12 15 24 22 35 18 17 -7 23 -27 8 -27 -5 0 -10 -21 -11 -47 -1 -26 -8
-54 -17 -64 -13 -14 -17 -34 -23 -106 -1 -7 -7 -13 -15 -13 -8 0 -21 -9 -28
-19 -17 -23 -31 -30 -37 -16 -2 6 -24 25 -48 44 -52 40 -56 67 -12 73 24 4 34
-1 51 -24 l20 -29 23 21 c19 18 22 27 15 46 -5 13 -6 24 -2 24 4 1 -5 11 -19
23 -47 39 -51 58 -21 90 31 33 48 34 56 5z m516 -21 c0 -17 -9 -25 -37 -34
-38 -12 -49 -9 -55 16 -2 8 8 14 26 17 16 1 34 10 38 19 12 20 28 10 28 -18z
m-637 -41 c8 -21 -3 -27 -19 -11 -18 17 -18 25 0 25 8 0 16 -6 19 -14z m597
-74 l0 -26 -21 21 c-14 13 -19 28 -15 38 9 25 36 0 36 -33z"/>
<path d="M8502 2168 c2 -77 6 -93 20 -96 10 -2 18 4 20 18 3 19 4 20 26 5 12
-9 22 -25 22 -36 0 -18 -6 -20 -42 -17 l-43 3 -3 -426 -2 -426 24 4 c28 6 73
-34 56 -51 -13 -13 -13 -26 1 -26 6 0 18 -7 26 -16 14 -13 14 -19 4 -36 -12
-19 -11 -20 8 -15 12 3 21 2 21 -3 0 -15 39 -18 51 -4 10 12 8 17 -7 28 -10 8
-15 18 -11 22 4 5 12 2 16 -5 15 -23 51 -3 51 27 0 15 7 37 15 48 8 12 12 24
8 27 -3 4 0 13 6 21 7 8 10 20 6 26 -10 16 12 12 30 -6 14 -15 14 -18 0 -34
-8 -9 -12 -20 -8 -23 13 -14 24 -6 34 23 15 42 26 38 33 -12 4 -24 13 -54 21
-68 13 -22 14 -2 15 179 l0 204 46 -6 c25 -2 50 -9 56 -15 21 -21 28 -98 28
-349 l0 -263 128 0 c86 0 132 4 140 12 9 9 15 9 24 0 7 -7 27 -12 45 -12 32 0
33 1 33 41 0 23 -4 38 -10 34 -20 -12 -58 8 -72 39 -13 27 -14 35 -2 51 12 16
18 17 39 7 14 -7 30 -12 35 -12 14 0 13 365 -1 413 -15 55 -64 104 -134 132
-57 23 -58 24 -30 30 91 20 132 49 154 108 17 44 14 80 -5 73 -16 -6 -44 14
-44 32 0 5 6 15 14 21 8 7 18 26 21 42 4 17 14 33 22 36 32 12 -7 174 -56 234
-35 42 -112 86 -168 95 -35 5 -42 3 -46 -12 -4 -16 -5 -16 -6 -2 -1 21 -66 36
-91 20 -10 -6 -23 -7 -30 -2 -9 6 -18 3 -27 -8 -11 -16 -12 -16 -13 1 0 16
-18 17 -226 17 l-225 0 3 -92z m433 42 c3 -5 1 -10 -4 -10 -6 0 -11 5 -11 10
0 6 2 10 4 10 3 0 8 -4 11 -10z m85 -70 c0 -5 -4 -10 -10 -10 -5 0 -10 5 -10
10 0 6 5 10 10 10 6 0 10 -4 10 -10z m211 -106 c20 -24 7 -59 -23 -62 -16 -2
-28 0 -29 5 0 4 -2 22 -4 39 -4 28 -2 32 20 32 14 0 30 -6 36 -14z m-226 -35
c18 -17 20 -33 20 -130 0 -104 -1 -112 -24 -130 -14 -11 -39 -19 -62 -19 l-39
0 0 148 c0 82 3 152 7 156 13 12 77 -4 98 -25z m-306 -91 c-8 -15 -8 -23 1
-32 9 -8 14 -8 17 2 3 6 12 12 20 12 9 0 13 6 9 15 -4 12 0 14 17 11 41 -8 56
-18 66 -44 5 -15 10 -21 10 -14 2 25 16 11 17 -18 1 -19 -4 -30 -12 -30 -8 0
-14 7 -14 15 0 8 -4 15 -10 15 -5 0 -10 -8 -10 -19 0 -27 -27 -45 -69 -47 -46
-2 -67 9 -83 43 -11 24 -10 33 10 75 13 27 27 46 33 43 5 -4 5 -14 -2 -27z
m189 -120 c-6 -18 -28 -21 -28 -4 0 9 7 16 16 16 9 0 14 -5 12 -12z m219 -78
c1 -13 -4 -20 -17 -20 -21 0 -34 15 -25 30 11 18 41 11 42 -10z m-368 -104
c10 -12 8 -17 -8 -25 -22 -12 -37 0 -27 24 7 19 20 19 35 1z m527 -130 c7 -16
20 -22 52 -24 41 -3 43 -5 29 -20 -9 -9 -17 -30 -19 -46 -4 -36 -26 -51 -63
-42 -26 7 -26 8 -10 26 16 17 15 19 -4 25 -29 9 -26 23 5 23 17 0 29 -8 34
-22 7 -18 9 -16 9 13 l1 34 -48 -7 c-39 -5 -52 -3 -74 15 -37 30 -26 47 31 46
38 -1 50 -5 57 -21z m-46 -341 c0 -17 -7 -28 -22 -34 -15 -5 -18 -10 -9 -15 9
-6 9 -11 1 -21 -9 -11 -18 -11 -52 1 -31 11 -44 11 -55 3 -7 -7 -16 -9 -19 -6
-10 10 7 27 27 27 16 0 19 4 14 22 -6 17 -4 20 11 14 10 -4 21 -1 25 6 6 9 11
9 21 0 11 -8 17 -7 26 9 17 27 32 24 32 -6z"/>
<path d="M8732 1830 c-1 -25 2 -28 21 -21 30 11 31 26 4 38 -22 10 -24 9 -25
-17z"/>
<path d="M9560 2145 c0 -70 4 -115 10 -115 6 0 10 -6 10 -14 0 -7 7 -19 15
-26 8 -7 15 -22 15 -34 0 -12 5 -27 12 -34 7 -7 8 -12 2 -12 -5 0 -15 5 -22
12 -9 9 -12 7 -12 -8 0 -12 10 -25 25 -32 14 -6 25 -16 25 -21 0 -15 -61 -72
-71 -65 -5 3 -9 -94 -9 -239 0 -243 0 -244 23 -255 12 -7 42 -11 67 -9 41 2
45 0 48 -23 2 -18 -6 -31 -30 -47 l-32 -22 -32 24 c-18 14 -35 25 -38 25 -8 0
-7 -139 1 -169 5 -21 10 -23 56 -18 60 5 90 -1 83 -18 -3 -8 2 -16 10 -19 8
-3 14 -15 14 -26 0 -11 4 -20 10 -20 5 0 7 7 4 15 -4 8 -2 15 4 15 12 0 24
-29 16 -41 -3 -5 -11 -9 -18 -9 -8 0 -16 -9 -19 -20 -4 -17 -9 -18 -38 -10
-19 6 -34 10 -35 10 -1 0 -4 -9 -7 -21 -3 -11 -11 -19 -19 -18 -20 3 -68 -12
-68 -22 0 -5 90 -9 200 -9 l200 0 0 258 c0 172 -4 262 -11 269 -8 8 -8 13 0
17 7 5 11 77 11 217 0 178 -2 211 -15 215 -24 10 -75 61 -75 76 0 7 20 25 45
38 l46 25 -3 95 c-3 90 -4 94 -27 100 -21 5 -22 7 -7 19 20 17 11 34 -15 26
-15 -5 -19 -1 -19 14 0 20 -5 21 -165 21 l-165 0 0 -115z m170 -145 c0 -5 -4
-10 -10 -10 -5 0 -10 5 -10 10 0 6 5 10 10 10 6 0 10 -4 10 -10z m130 -64 c0
-3 -4 -8 -10 -11 -5 -3 -10 -1 -10 4 0 6 5 11 10 11 6 0 10 -2 10 -4z m-180
-76 c0 -5 -7 -10 -15 -10 -8 0 -15 5 -15 10 0 6 7 10 15 10 8 0 15 -4 15 -10z
m20 -372 c0 -4 -4 -8 -9 -8 -6 0 -12 4 -15 8 -3 5 1 9 9 9 8 0 15 -4 15 -9z
m240 -39 c0 -6 -7 -17 -15 -25 -16 -16 -19 -7 -9 20 7 18 24 22 24 5z"/>
<path d="M10120 2098 l0 -163 24 30 c13 17 28 27 32 22 4 -4 14 -1 23 7 9 8
27 16 41 18 14 2 24 9 22 17 -5 22 8 51 23 51 18 0 27 -32 20 -63 -4 -14 -2
-28 4 -31 16 -10 13 -29 -3 -23 -16 7 -36 -11 -36 -33 0 -8 -9 -23 -20 -33
-11 -9 -20 -25 -20 -35 0 -12 -7 -17 -23 -17 -26 1 -67 33 -67 52 0 7 -4 13
-10 13 -5 0 -8 -87 -7 -222 l2 -223 23 -2 c46 -6 58 -9 80 -21 25 -14 30 -42
7 -42 -8 0 -20 -8 -26 -18 -9 -14 -21 -18 -50 -15 l-39 4 0 -180 c0 -121 4
-182 11 -187 8 -5 8 -9 -1 -14 -7 -4 -9 -13 -6 -19 4 -6 12 -9 17 -6 5 4 9 -1
9 -9 0 -10 -6 -13 -16 -9 -13 5 -15 -1 -12 -33 l3 -39 313 -3 c206 -1 312 1
312 8 0 10 -17 13 -74 14 -42 1 -42 20 -1 52 28 21 38 25 45 15 6 -11 8 -11
12 0 3 10 10 9 28 -4 14 -9 32 -17 42 -17 16 0 18 11 18 105 l0 105 -145 0
-145 0 0 155 0 155 59 0 59 0 7 41 c6 37 8 39 21 22 11 -15 14 -15 15 -3 1 8
1 18 0 22 0 5 2 7 7 7 22 -4 33 4 46 36 8 19 20 35 25 35 6 0 11 22 11 50 l0
50 -124 0 -124 0 -4 71 c-2 39 -2 100 0 135 l4 63 131 3 c115 3 130 5 133 21
1 10 -4 17 -15 17 -19 0 -41 18 -41 35 0 5 13 16 29 23 28 13 29 14 27 90 l-1
77 -337 3 -338 2 0 -162z m234 113 c7 -11 -3 -41 -14 -41 -10 0 -20 37 -12 44
8 9 20 7 26 -3z m66 -52 c0 -11 -6 -19 -14 -19 -17 0 -31 34 -21 50 10 16 35
-8 35 -31z m188 -27 c-9 -11 -14 -11 -26 2 -20 20 -7 39 18 24 14 -9 16 -15 8
-26z m-308 8 c0 -11 -7 -20 -15 -20 -15 0 -21 21 -8 33 12 13 23 7 23 -13z
m430 -62 c0 -16 -3 -19 -11 -11 -6 6 -8 16 -5 22 11 17 16 13 16 -11z m-50
-70 c0 -13 -23 -5 -28 10 -2 7 2 10 12 6 9 -3 16 -11 16 -16z m-479 -230 c7
-18 14 -36 17 -40 9 -18 -22 -6 -42 15 -17 18 -20 28 -12 40 15 24 22 21 37
-15z m54 -8 c-6 -9 -9 -9 -16 1 -10 17 0 34 13 21 6 -6 7 -16 3 -22z m-16
-484 c15 -18 2 -23 -45 -18 -28 4 -32 7 -23 18 15 18 53 18 68 0z"/>
<path d="M10941 1979 c1 -266 2 -282 16 -246 18 42 40 48 68 17 16 -18 17 -20
1 -20 -14 0 -15 -7 -9 -42 l6 -42 -26 17 c-59 39 -57 55 -57 -389 l0 -406 348
5 c370 5 417 10 485 57 61 42 82 84 83 169 0 42 4 83 8 92 4 9 6 203 4 431
l-3 414 -30 60 c-25 48 -36 60 -59 62 -19 2 -26 8 -22 18 3 9 -7 20 -27 30
-80 42 -122 46 -459 51 l-328 5 1 -283z m533 186 c23 0 34 -31 17 -48 -7 -7
-16 -4 -28 12 l-18 23 -19 -21 c-18 -20 -20 -20 -38 -5 -21 20 -24 36 -4 28
11 -4 14 2 11 23 -5 43 6 49 33 17 14 -15 34 -28 46 -29z m341 -135 c-3 -5
-12 -10 -18 -10 -7 0 -6 4 3 10 19 12 23 12 15 0z m-390 -14 c19 -8 36 -16 37
-18 1 -2 4 -122 7 -268 5 -226 8 -265 21 -262 11 3 11 -1 -3 -16 -20 -22 -22
-62 -4 -81 10 -11 10 -14 0 -18 -9 -3 -13 -28 -13 -76 0 -128 -23 -167 -100
-167 l-29 0 -3 158 c-2 86 -2 293 0 460 l3 302 25 0 c14 0 40 -7 59 -14z m325
-306 c0 -12 77 -43 89 -36 7 5 11 -4 11 -22 0 -22 -4 -29 -17 -28 -12 1 -17
-5 -15 -16 5 -29 -35 -22 -42 7 -4 16 -16 27 -34 31 -25 7 -62 38 -62 54 0 4
10 12 23 17 22 10 47 7 47 -7z m-125 -20 c3 -5 1 -10 -4 -10 -6 0 -11 5 -11
10 0 6 2 10 4 10 3 0 8 -4 11 -10z m53 -47 c14 -12 13 -13 -6 -13 -19 0 -22 5
-21 38 1 26 3 30 6 12 2 -14 12 -31 21 -37z m-541 -75 c-3 -8 -6 -5 -6 6 -1
11 2 17 5 13 3 -3 4 -12 1 -19z m541 -41 c20 -13 14 -27 -13 -27 -16 0 -25 -6
-25 -16 0 -9 -3 -14 -7 -12 -5 3 -23 11 -40 18 -18 8 -33 18 -33 22 0 4 -7 8
-15 8 -19 0 -19 9 0 30 15 16 19 16 68 1 29 -9 58 -20 65 -24z m-168 -37 c0
-5 -5 -10 -11 -10 -5 0 -7 5 -4 10 3 6 8 10 11 10 2 0 4 -4 4 -10z m-408 -75
c31 -12 35 -18 30 -41 -3 -15 -13 -29 -23 -31 -23 -6 -25 -21 -4 -29 17 -7 21
-44 4 -44 -5 0 -8 -4 -4 -9 3 -6 -3 -15 -13 -20 -20 -11 -42 2 -42 24 0 7 -9
20 -20 30 -24 21 -26 48 -5 69 8 8 19 26 25 40 11 31 8 30 52 11z"/>
<path d="M11050 1301 c0 -5 5 -13 10 -16 6 -3 10 -2 10 4 0 5 -4 13 -10 16 -5
3 -10 2 -10 -4z"/>
<path d="M376 2168 c-26 -37 -21 -58 15 -58 29 0 30 2 27 37 -4 44 -20 52 -42
21z"/>
<path d="M310 2081 c0 -33 5 -63 10 -66 8 -5 7 -11 0 -20 -15 -18 5 -59 23
-49 7 4 2 -4 -10 -18 -19 -20 -23 -36 -23 -90 0 -43 4 -68 13 -72 10 -5 10 -7
0 -12 -10 -4 -13 -43 -13 -142 0 -122 2 -141 21 -172 12 -19 28 -40 37 -46 20
-15 9 -30 -27 -37 -28 -6 -30 -9 -27 -49 1 -24 6 -51 11 -62 5 -11 4 -21 -4
-25 -9 -6 -11 -98 -9 -377 3 -337 5 -372 22 -404 26 -49 74 -98 121 -123 40
-22 40 -22 880 -25 462 -1 846 0 854 3 10 4 11 8 1 20 -10 12 -8 16 15 25 17
7 25 16 23 28 -3 16 -33 17 -448 17 l-445 0 -13 -27 -13 -28 -24 28 -23 27
-339 5 c-328 5 -339 6 -374 27 -20 13 -51 41 -70 63 -19 22 -39 40 -45 40 -7
0 -14 9 -17 20 -3 11 -16 24 -29 29 -16 7 -18 10 -6 10 33 2 38 36 38 243 0
164 -3 208 -15 224 -19 25 -19 48 0 64 22 18 21 464 -1 509 -9 17 -21 31 -27
31 -7 0 -12 14 -13 30 -1 27 2 30 25 28 22 -3 27 1 29 25 3 21 -2 29 -20 37
l-23 9 22 7 c23 6 23 9 20 158 l-2 151 -31 3 c-22 2 -34 9 -37 23 -3 10 -12
19 -21 19 -13 0 -16 -12 -16 -59z"/>
<path d="M7121 2041 c-21 -14 -5 -41 24 -41 22 0 45 24 34 34 -12 10 -46 14
-58 7z"/>
<path d="M1150 1930 c0 -5 5 -10 10 -10 6 0 10 5 10 10 0 6 -4 10 -10 10 -5 0
-10 -4 -10 -10z"/>
<path d="M1232 1841 c2 -7 7 -12 11 -12 12 1 9 15 -3 20 -7 2 -11 -2 -8 -8z"/>
<path d="M10760 1560 c0 -5 5 -10 11 -10 5 0 7 5 4 10 -3 6 -8 10 -11 10 -2 0
-4 -4 -4 -10z"/>
<path d="M10755 1520 c-10 -11 -23 -20 -29 -20 -6 0 -17 -9 -24 -20 -11 -19
-10 -20 33 -20 l46 0 -3 40 c-1 22 -3 40 -3 40 -1 0 -10 -9 -20 -20z"/>
<path d="M2240 1300 c0 -5 5 -10 11 -10 5 0 7 5 4 10 -3 6 -8 10 -11 10 -2 0
-4 -4 -4 -10z"/>
<path d="M3107 1184 c-8 -8 1 -24 14 -24 5 0 9 7 9 15 0 15 -12 20 -23 9z"/>
<path d="M12420 1050 c0 -89 2 -100 18 -100 10 0 28 7 40 16 19 13 22 24 22
89 0 79 -10 95 -59 95 -20 0 -21 -6 -21 -100z"/>
<path d="M8530 1120 c0 -5 -7 -10 -15 -10 -10 0 -15 -10 -15 -30 0 -35 12 -38
40 -10 11 11 26 17 35 14 21 -8 19 9 -3 29 -21 19 -42 22 -42 7z"/>
<path d="M8842 1085 c-5 -10 -17 -15 -28 -13 -12 2 -32 -11 -55 -34 -38 -39
-108 -71 -134 -62 -8 3 -23 21 -34 40 -11 19 -25 34 -30 34 -14 0 -31 -34 -31
-63 0 -14 -7 -27 -15 -31 -21 -8 -20 -72 1 -80 20 -8 34 1 34 20 0 17 22 18
38 2 9 -9 12 -7 12 10 0 12 5 22 11 22 5 0 7 -5 4 -10 -3 -6 -3 -19 0 -30 6
-18 15 -20 120 -20 101 0 114 2 108 16 -5 14 -3 15 15 5 32 -17 34 -14 27 29
-4 26 -3 40 4 40 7 0 11 25 11 65 0 36 -4 65 -9 65 -5 0 -16 3 -24 6 -9 3 -19
-2 -25 -11z"/>
<path d="M7972 1049 c1 -12 9 -24 16 -27 9 -3 13 3 10 19 -1 12 -9 24 -16 27
-9 3 -13 -3 -10 -19z"/>
<path d="M9595 987 c-4 -10 -5 -21 -1 -24 10 -10 18 4 13 24 -4 17 -4 17 -12
0z"/>
<path d="M6370 950 c-1 -3 -3 -22 -6 -42 -5 -33 -3 -38 15 -38 29 0 31 11 10
50 -11 19 -19 33 -19 30z"/>
<path d="M12427 833 c-4 -3 -7 -53 -7 -110 0 -94 -3 -109 -29 -161 -33 -64
-55 -87 -122 -126 -53 -30 -169 -58 -209 -49 -21 4 -31 0 -44 -18 -12 -17 -16
-19 -16 -7 0 9 -7 19 -16 22 -21 8 -2109 7 -2129 0 -18 -7 -20 -38 -2 -51 6
-6 37 -18 67 -27 50 -15 155 -16 1225 -14 l1170 3 40 22 c53 28 99 78 124 133
18 39 21 66 21 202 0 86 -3 163 -6 172 -6 16 -54 22 -67 9z"/>
<path d="M2261 376 c-12 -14 -5 -26 16 -26 15 0 18 26 4 34 -5 3 -14 0 -20 -8z"/>
<path d="M2327 384 c-14 -15 -6 -51 16 -72 22 -21 32 -22 220 -22 139 0 197 3
197 11 0 8 5 8 15 -1 16 -13 45 -7 45 9 0 5 -6 16 -14 23 -8 8 -16 23 -18 34
-3 18 -13 19 -128 19 -124 0 -125 0 -125 -23 -1 -50 -67 -56 -75 -7 -5 29 -7
30 -65 33 -34 2 -64 0 -68 -4z"/>
<path d="M2885 377 c-2 -6 -1 -28 3 -47 l8 -35 688 -3 c380 -1 694 2 700 7 6
4 31 11 56 15 64 10 121 37 118 56 -3 13 -90 15 -786 17 -618 2 -784 0 -787
-10z"/>
<path d="M4582 381 c-9 -5 -10 -19 -4 -47 l8 -39 811 0 c591 0 815 3 823 11 8
8 9 17 2 30 -6 11 -13 27 -16 37 -5 16 -49 17 -809 17 -441 -1 -808 -5 -815
-9z"/>
<path d="M6233 374 c-8 -21 13 -64 32 -64 8 0 15 -4 15 -10 0 -6 42 -10 105
-10 122 0 134 8 91 65 l-27 35 -105 0 c-86 0 -106 -3 -111 -16z"/>
<path d="M6655 382 c-13 -9 -35 -58 -35 -78 0 -12 110 -14 848 -12 l847 3 1
25 c1 14 -3 36 -7 48 l-8 22 -818 0 c-450 0 -823 -4 -828 -8z"/>
<path d="M8353 375 c-3 -9 -3 -19 1 -22 3 -3 1 -12 -5 -19 -6 -8 -9 -21 -5
-29 4 -12 28 -15 126 -15 135 0 141 4 94 66 l-26 34 -90 0 c-71 0 -90 -3 -95
-15z"/>
<path d="M8692 378 c-15 -15 -16 -48 -2 -48 6 0 10 -9 10 -20 0 -19 7 -20 164
-20 178 0 191 4 182 54 -3 14 -7 30 -11 36 -9 15 -328 13 -343 -2z"/>
<path d="M9163 378 c-4 -7 -6 -21 -5 -31 3 -14 -1 -17 -21 -12 -25 7 -54 -16
-42 -35 4 -6 110 -10 309 -10 248 0 306 3 315 14 7 8 27 17 45 20 37 7 72 39
61 55 -10 17 -651 15 -662 -1z"/>
<path d="M8137 243 c-11 -11 -8 -23 6 -23 10 0 13 -16 13 -60 -1 -56 -4 -63
-40 -100 -21 -21 -35 -44 -31 -50 4 -6 122 -10 351 -10 l345 0 8 23 c6 16 2
35 -15 69 -13 26 -28 49 -34 53 -5 3 -10 17 -10 31 0 78 -78 100 -137 39 -46
-47 -72 -60 -79 -40 -4 9 3 22 17 33 44 36 19 42 -190 42 -109 0 -201 -3 -204
-7z"/>
<path d="M198 46 c-29 -21 -23 -46 11 -46 32 0 56 22 47 45 -7 18 -35 19 -58
1z"/>
<path d="M11577 34 c-14 -14 -7 -35 11 -32 9 2 17 10 17 17 0 16 -18 25 -28
15z"/>
</g>
</svg>
